<?xml version="1.0" encoding="utf-8"?>
<!DOCTYPE svg PUBLIC "-//W3C//DTD SVG 1.0//EN" "http://www.w3.org/TR/2001/REC-SVG-20010904/DTD/svg10.dtd">
<svg version="1.0" xmlns="http://www.w3.org/2000/svg" width="1024px" height="1536px" viewBox="0 0 1024 1536" preserveAspectRatio="xMidYMid meet">
 <g fill="#00a6e3">
  <path d="M 907.4 1528.6 l -2.2 -5.5 1.5 -0.5 1.5 -0.6 1.5 4 c 0.9 2.2 1.9 4 2.2 4 0.3 0 1.6 -2.7 2.8 -6 l 2.2 -6 -1.5 0 c -0.8 0 -1.4 -0.3 -1.4 -0.8 0 -0.6 6.2 -8.7 8.6 -11.1 0.2 -0.2 0.4 3.1 0.4 7.4 l 0 7.7 -1.6 -1.2 -1.5 -1.3 -0.5 1.9 c -0.3 1 -1.6 4.4 -2.8 7.4 l -2.2 5.5 -2.5 0.3 -2.4 0.3 -2.1 -5.5 z "/>
  <path d="M 496 969.3 l 0 -0.8 -4.8 0.3 -4.8 0.4 -14.5 -2.1 c -8 -1.2 -15 -2.1 -15.5 -2.1 l -0.9 0 1.4 -0.9 1.5 -1 1.7 1 c 2.3 1.2 2.9 1.1 2.9 -0.1 l 0 -1 -1.5 0 -1.5 0 0 -1 0 -1.1 -2 1.1 -2 1.1 -1.8 -1 -1.7 -0.9 -4.8 0.4 -4.8 0.3 0.7 -1.1 0.7 -1.1 -1.2 0.7 -1.2 0.8 -5 -1.3 -5 -1.3 0.5 -1.1 0.4 -1.2 -1.4 0 -1.3 0 0.6 1 0.6 1 -1.4 -0.5 c -0.8 -0.3 -4 -1.4 -7.1 -2.3 l -5.7 -1.8 0.5 -0.9 0.5 -0.8 -1.5 0.6 -1.4 0.5 -3.1 -1.6 -3.1 -1.6 0 -0.9 0 -1 -1.1 0 -1 0 0.7 1.2 0.7 1.1 -1.7 -0.6 c -1 -0.4 -2.1 -0.7 -2.4 -0.7 -0.4 0 0 -0.5 0.8 -1 l 1.5 -1 -1.3 0 -1.3 0 0.5 -0.9 0.6 -0.9 -1.4 -0.5 -1.5 -0.6 -1.1 1.4 -1.1 1.3 -4.9 -2.1 -4.9 -2.1 0.6 -0.9 0.6 -1 -1.1 0.7 -1.2 0.7 -2.2 -1.2 c -1.3 -0.6 -3.1 -2.1 -4.1 -3.3 l -1.9 -2.1 0.8 1.4 0.7 1.4 -0.9 -0.4 c -0.5 -0.2 -3.3 -1.7 -6.1 -3.3 l -5.2 -2.9 0.6 -1 0.6 -1 -1.2 0.7 -1.1 0.7 -9 -5.6 -9 -5.7 0.5 -0.8 0.5 -0.9 -1.1 -0.7 -1.2 -0.7 0.7 1.1 0.7 1.2 -0.6 0 c -0.6 0 -13 -8.5 -15.1 -10.5 -0.7 -0.5 -3.7 -3 -6.8 -5.4 l -5.6 -4.4 1.3 -1.6 1.2 -1.6 -1.6 1.2 -1.6 1.3 -3.2 -3.4 -3.3 -3.4 0.5 -0.9 0.6 -1 -1.4 0 -1.4 0 0.6 1.1 c 0.3 0.6 -0.6 0 -2 -1.3 l -2.6 -2.4 0.6 -1.1 0.6 -1.1 -0.8 0.8 -0.8 0.7 -1.8 -1.6 -1.9 -1.7 0.7 -1 0.6 -1 -1.1 0.7 -1.2 0.7 -1 -2.5 c -0.5 -1.4 -1.2 -2.6 -1.5 -2.6 l -0.6 0 0.7 1.3 c 0.4 0.6 -1.1 -0.8 -3.2 -3.1 -2.2 -2.4 -3.9 -4.9 -3.9 -5.5 l 0 -1.2 -1.5 0 -1.5 -0.1 0.3 -1.3 0.2 -1.2 -0.8 0.5 -0.9 0.5 -7.2 -9.5 -7.2 -9.4 0.7 -1.2 0.7 -1.1 -1.1 0.7 -1 0.6 -2.1 -3.4 c -1.2 -1.8 -2.1 -4 -2.1 -4.9 l 0 -1.6 -1.2 -0.7 -1.1 -0.7 0.8 1.4 0.8 1.4 -1.1 -1 c -0.6 -0.5 -1.2 -1.7 -1.4 -2.5 -0.2 -0.8 -0.8 -1.9 -1.4 -2.5 -0.6 -0.5 -2.4 -3.1 -3.9 -5.8 l -2.7 -4.7 1.9 0.5 1.8 0.6 -2.2 -1.2 -2.1 -1.1 -3.1 -5.7 c -1.6 -3.1 -4.6 -9.5 -6.6 -14 l -3.5 -8.4 0.5 -1.8 0.6 -1.9 -1.5 -0.6 -1.5 -0.6 -1.1 -3.4 -1.1 -3.4 0.7 -1.1 0.7 -1.2 -1.1 0.7 -1 0.6 -0.7 -3.2 c -0.4 -1.8 -1.6 -6.1 -2.7 -9.6 l -2 -6.3 0.5 -1.4 0.6 -1.4 -0.9 -0.3 -0.9 -0.3 -2.8 -16 -2.7 -16 -0.1 -29.5 0 -29.5 1.4 -8.2 1.3 -8.3 1.2 0 1.1 0 -1.5 -1 -1.5 -1 1 0 1 0 0.2 -4.8 0.1 -4.7 2.1 -9 c 1.2 -5 4.2 -15.4 6.8 -23.2 l 4.6 -14.3 1.3 0 1.4 0 0 -1.1 0 -1 -0.9 0.5 -0.9 0.6 0.5 -2 0.5 -2 0.7 0.4 0.7 0.5 1.4 -2.2 1.3 -2.2 -1.7 1.4 -1.7 1.5 2.4 -5.5 c 1.3 -3 3 -6.7 3.7 -8.2 l 1.3 -2.8 1 1.3 0.9 1.3 -0.6 -1.8 -0.6 -1.8 1.5 -3 1.6 -2.9 1 0 1 0 -0.6 -1.1 -0.7 -1 2.2 -0.6 2.1 -0.6 -0.5 -2.1 -0.5 -2.1 8.8 -13 8.7 -13 1.2 0.2 1.1 0.3 -0.5 -1.4 -0.5 -1.3 1.7 -1.4 1.8 -1.4 -0.9 1.4 -0.8 1.4 1.2 -0.7 1.1 -0.7 -0.5 -0.9 -0.5 -0.9 3.1 -3.5 3.1 -3.6 0.8 0.5 0.9 0.5 0.7 -1.1 0.7 -1.2 -1.1 0.7 -1.2 0.7 0 -0.9 c 0 -0.5 0.6 -1.5 1.3 -2.1 l 1.4 -1.1 0.7 0.8 0.8 0.7 -0.4 -1.1 -0.3 -1.1 3.7 -4 3.6 -4.1 1.9 -0.6 1.8 -0.6 2 -3.7 2 -3.8 2.1 0.3 2.2 0.3 0.6 -1.7 0.6 -1.7 -1.7 1.3 c -1 0.7 1.3 -1.7 5 -5.4 l 6.8 -6.7 1.1 0.7 1.1 0.7 -0.7 -1.2 -0.7 -1.1 1.6 -0.7 c 1 -0.3 2.8 -1.7 4.1 -3 l 2.4 -2.4 1.2 0.7 1.1 0.7 -0.6 -1 -0.7 -1 2 -1.8 2 -1.8 0 0.8 c 0 0.5 0.7 0 1.5 -1.1 0.8 -1 1.5 -1.6 1.5 -1.3 0 0.4 1.7 -0.9 3.7 -2.7 l 3.7 -3.4 1.4 0.5 1.3 0.5 -0.6 -1 -0.6 -0.9 2 -1 1.9 -1.1 0.5 1.3 0.5 1.2 0.1 -1.7 0.1 -1.7 4.3 -2.6 c 2.4 -1.4 4.7 -2.5 5.1 -2.5 l 0.7 0 -0.6 1.3 c -0.4 0.6 0.3 0.1 1.4 -1.2 l 2.1 -2.3 0 1.1 0 1.2 1 -0.6 1 -0.6 -0.5 -0.9 -0.6 -0.9 3.8 -1.9 3.8 -1.9 1.4 0.5 1.4 0.5 -0.6 -1 -0.6 -1 2.5 -1.2 2.5 -1.1 1.1 0.6 1.1 0.7 -0.6 -1 -0.6 -1 2.5 -1.2 c 1.4 -0.6 3 -1.1 3.6 -1.1 l 1 0 -0.6 1.6 -0.6 1.5 1 -0.6 1 -0.6 0 1.5 0 1.6 2.4 0 2.4 0 1 -1.2 c 0.5 -0.7 1.2 -2.2 1.4 -3.3 l 0.4 -2 1.9 0.3 1.9 0.4 -1.4 -1.7 -1.4 -1.7 1.9 -1.4 c 2.3 -1.7 3.5 -1.8 3.5 -0.3 l 0 1 1 -0.6 1 -0.6 -0.4 -0.8 -0.5 -0.8 15.2 -4.8 15.2 -4.9 4.9 0.1 4.9 0.1 -1.4 -0.9 -1.4 -0.9 2.3 0 2.3 0 -0.5 0.8 -0.5 0.9 1.5 0 1.5 0 -0.5 -1.3 -0.5 -1.2 3.1 -0.6 c 1.7 -0.3 3.8 -0.6 4.7 -0.6 l 1.6 0 -1.5 1.1 -1.5 1.1 1.8 -0.6 c 1 -0.3 2.4 -0.6 3 -0.6 l 1.2 0 -1.3 -0.9 -1.4 -0.8 7.9 -1.1 c 10.9 -1.5 18.1 -2.1 30.8 -2.6 l 11 -0.4 12.5 0.8 c 6.9 0.5 15.3 1.2 18.8 1.6 l 6.2 0.6 0 1.4 0 1.4 2.3 0 2.2 0 -1.5 -1 -1.5 -1 3.4 0 3.3 0 -0.7 1.8 -0.6 1.7 1.2 -1.2 1.3 -1.3 1.8 0 1.8 0 0.1 1.3 c 0.1 0.6 0.1 1.5 0.1 1.8 l -0.1 0.6 5.7 -0.1 5.7 -0.1 8.3 1.8 8.2 1.9 -0.4 0.6 -0.4 0.7 3.1 0.1 3 0.1 1.1 1.5 1.1 1.6 2.6 0 c 1.4 -0.1 4.3 0.5 6.4 1.2 l 3.7 1.2 -1.3 1 -1.4 0.9 2.1 -0.6 2.1 -0.5 4.4 2 c 2.4 1.1 3.6 1.8 2.6 1.5 l -1.8 -0.5 0.6 1.1 0.7 1 1.8 -0.6 1.8 -0.6 7.6 3.7 7.5 3.7 -0.5 0.8 -0.5 0.9 2.2 0 2.1 0 4.9 2.6 4.8 2.7 -0.2 1 -0.2 1 1.4 0.5 1.4 0.5 -0.8 -1.3 -0.7 -1.2 2.1 1.2 2.2 1.1 -0.7 1.1 -0.7 1.1 1.2 -0.7 1.1 -0.7 3.5 2.1 3.5 2.2 -0.6 1 -0.7 1.1 1.1 -0.7 1.2 -0.7 0 1.2 0 1.2 0.6 -0.6 0.7 -0.6 1.8 1 1.9 1 0.1 2.2 0 2.2 0.7 -1.7 0.7 -1.6 3 2.5 c 1.7 1.4 2.4 2.2 1.6 1.8 l -1.4 -0.8 0.7 1.2 0.7 1.1 1 -0.6 0.9 -0.5 4.1 3.2 4 3.2 -0.5 1.3 -0.5 1.4 2.4 0 2.5 0 3.8 3.6 c 2 2 2.9 3.1 1.9 2.4 l -1.7 -1.3 0.6 1.7 0.6 1.6 2.1 0 2.1 0 2.7 2.6 2.7 2.6 -0.5 1.5 -0.5 1.4 0.8 -0.3 c 0.5 -0.1 1.9 0.1 3.1 0.5 l 2.1 0.8 0.8 1.7 c 0.4 0.9 0.8 2.4 0.8 3.2 l 0.1 1.5 2.5 0.3 2.4 0.4 1.2 1.6 1.2 1.7 -0.5 0.8 -0.4 0.7 1.3 -0.2 1.3 -0.3 -0.3 1.9 -0.3 1.8 1.1 -0.7 1.1 -0.7 1.5 1.3 c 0.8 0.7 2 2.1 2.6 3.2 l 1 1.9 -1.3 -0.7 -1.2 -0.8 0.6 1.6 0.6 1.6 -1.2 0.5 -1.2 0.4 2.8 0.1 2.8 0.1 -0.7 -1.2 -0.7 -1.3 2.6 2.4 c 1.5 1.4 2.7 2.8 2.7 3.3 l 0 0.9 -1 -0.6 -1 -0.6 0.7 1.6 0.6 1.7 0.7 -1.2 0.7 -1.1 1.4 1.7 1.4 1.8 -1.5 -0.8 -1.5 -0.7 1.7 1.4 1.8 1.4 -0.8 0.8 -0.7 0.8 1.1 -0.6 1.2 -0.7 1.2 1.5 1.2 1.4 -0.7 1.1 -0.6 1 1 -0.2 1.1 -0.3 3.4 4.5 3.5 4.5 -1.2 0.7 -1.2 0.8 1.7 0 1.7 0 1.1 2 1.1 2 -0.6 1 -0.6 0.9 2.6 1.7 2.6 1.7 -0.5 1.4 -0.6 1.4 1.1 -0.7 1.1 -0.7 -0.7 2.4 -0.6 2.4 0.9 -1.4 1 -1.4 1.6 3.1 1.6 3.1 -1.5 -0.5 -1.5 -0.6 0.6 1.6 0.7 1.7 1.2 -0.5 1.3 -0.5 -0.5 2 -0.5 1.9 1.6 0 1.5 0 1.7 3.1 1.6 3.2 0.2 3.1 0.1 3.1 1.2 -0.2 1.1 -0.2 -0.5 1.9 -0.5 2 1.5 0 1.5 0 0.5 1.9 0.5 2 -1.4 -0.6 -1.4 -0.5 0 0.8 c 0 0.5 0.5 1.6 1 2.4 l 1 1.5 0 -1.2 c 0 -0.7 0.4 -1.3 0.8 -1.3 l 0.9 0 1.4 4.3 c 0.8 2.3 1.2 4.8 1.1 5.6 l -0.3 1.3 0.9 -0.6 1 -0.6 0.5 2.2 0.6 2.2 -1.1 1.3 -1.1 1.3 1.7 -0.6 1.6 -0.6 0 1 c 0 0.6 -0.6 1.3 -1.2 1.5 l -1.3 0.5 1.9 0.1 1.8 0.1 -0.5 2 -0.5 2 0.7 -0.5 0.8 -0.4 2.7 9.5 2.8 9.6 -0.6 0.5 -0.5 0.5 -0.7 -3.6 c -0.7 -4 -1.2 -4.1 -1.9 -0.7 l -0.4 2.2 1 -0.7 1.1 -0.6 -0.4 2.3 -0.3 2.4 1.5 0 1.5 0 1.2 5.5 c 1.8 8.2 4.3 25.6 4.2 29.3 l -0.1 3.2 -0.8 -3 -0.8 -3 -0.1 3.2 -0.1 3.2 1 0.6 1.1 0.7 -1.3 1.6 -1.3 1.6 1.3 -0.8 c 2 -1.2 1.4 0 -2.8 5 -4.3 5.3 -4.8 6.4 -2.6 6.4 l 1.5 0 -2.2 6 c -1.2 3.3 -2.5 6 -2.8 6 l -0.7 0 -0.4 -8.7 -0.4 -8.8 0.8 -1.2 0.9 -1.1 -0.9 -0.4 -0.9 -0.3 -0.7 -8.8 -0.7 -8.9 1.3 0.7 1.3 0.6 -1.5 -1.3 -1.6 -1.3 -1.2 -8 c -0.8 -4.4 -2 -10.9 -2.9 -14.4 l -1.5 -6.3 1.2 -0.8 1.2 -0.7 -1.1 -0.7 -1.1 -0.7 -0.1 0.8 c 0 0.4 -0.9 -1.9 -1.9 -5.1 l -1.9 -6 0.5 -0.8 0.5 -0.8 -0.8 0 -0.9 0 -2.4 -7.2 c -1.4 -4 -2.4 -7.9 -2.3 -8.5 l 0.1 -1.3 -1 0 -1 0 0.6 -1.5 0.5 -1.5 -0.9 0 -1 0 -0.6 -2.7 c -0.4 -1.6 -1.3 -3.6 -1.9 -4.6 l -1.3 -1.8 0.5 -1.9 0.5 -1.8 -1.1 -0.6 -1.1 -0.7 0.6 1.8 c 0.3 1 -0.4 0.1 -1.5 -2.1 l -2.1 -3.9 0.6 -0.8 0.5 -0.9 -1 0 -1 0 -1.6 -3 c -0.8 -1.6 -1.5 -3.3 -1.4 -3.7 0.1 -0.4 0.1 -1.4 0 -2.1 l -0.1 -1.3 -1.2 0.7 -1.1 0.7 0.6 -1.6 0.6 -1.6 -1.1 -0.7 -1.1 -0.7 0.7 1.1 c 0.4 0.7 0.5 1.2 0.2 1.2 -0.8 0 -6.9 -10.5 -7 -12.2 l -0.1 -1.7 -2 -1.6 -2 -1.6 1.5 0.7 1.5 0.8 -1.4 -1.7 -1.3 -1.7 -1.2 0.7 -1.1 0.6 0.7 -0.8 0.8 -0.8 -1.8 -1.4 -1.7 -1.4 1.3 0.6 1.2 0.6 0 -0.9 c 0 -0.5 -0.8 -1.6 -1.7 -2.3 l -1.7 -1.4 0.8 1.3 c 2.1 3.4 -0.9 0.3 -7 -7.5 l -6.9 -8.6 0.3 -0.9 0.2 -0.9 -0.9 0.5 -0.9 0.6 -2.8 -3.7 -2.8 -3.6 1.4 0.8 1.3 0.8 -0.7 -1.1 c -0.4 -0.7 -1.3 -1.2 -2 -1.2 l -1.2 0 -3.2 -3.3 -3.2 -3.3 0.7 -0.9 0.8 -0.8 -1.1 0.6 -1.1 0.7 -1.6 -1.8 c -0.9 -0.9 -1.7 -2.1 -1.9 -2.7 -0.2 -0.5 -0.9 -1 -1.7 -1.2 -0.7 -0.1 -2.6 -1.4 -4.2 -2.9 l -2.9 -2.8 1.2 -0.8 1.3 -0.9 -1.6 0.3 -1.6 0.3 -10.1 -7.9 -10.1 -7.9 0.4 -0.8 0.5 -0.8 -1.1 -0.7 -1.2 -0.7 0.7 1.1 0.7 1.2 -0.8 0 c -0.5 0 -1.4 -0.5 -2 -1.1 l -1.1 -1.1 0.5 -1.7 0.5 -1.6 -1 1.4 -1 1.4 -1.1 -0.7 -1.1 -0.7 0.6 -1.1 0.7 -1.1 -1.2 0.7 -1.1 0.7 -2.8 -1.9 c -1.5 -1.1 -8.3 -5.2 -15.2 -9.1 l -12.5 -7.2 -1.3 -2.2 -1.3 -2.2 0.5 1.8 0.6 1.8 -2.2 -0.7 c -1.2 -0.3 -4.7 -1.9 -7.9 -3.4 l -5.8 -2.7 0.7 -0.7 0.6 -0.7 -1.8 0.7 -1.9 0.7 0.8 -1.3 0.8 -1.3 -1.2 0.7 -1.1 0.7 -3.5 -1.2 -3.5 -1.3 0 -1.2 0 -1.2 -1.6 -0.6 c -2.6 -1 -3 -0.6 -0.9 1.1 l 2 1.6 -2 -0.8 c -1.1 -0.4 -7.6 -2.4 -14.5 -4.3 -6.9 -2 -12.7 -3.9 -13 -4.2 -0.3 -0.3 -1.6 -0.6 -3 -0.7 -1.4 -0.1 -7.8 -1.1 -14.3 -2.2 l -11.7 -2.1 -9.8 -0.5 c -5.3 -0.3 -12.1 -0.8 -15 -1.1 l -5.2 -0.5 0.5 -1 0.6 -0.9 -1.6 0 -1.6 0 0.6 1.1 0.7 1 -5.9 0 c -3.2 0 -9.1 0.2 -13.2 0.5 l -7.4 0.6 0.7 -1.1 0.7 -1.1 -2 0 -1.9 0 -0.4 1.1 -0.4 1.1 -12.4 1.8 -12.4 1.8 -2.4 -0.4 -2.4 -0.5 0.6 0.9 0.6 0.9 -5.6 1.2 -5.6 1.1 -1.1 -0.7 -1 -0.6 0.8 1.3 0.8 1.3 -2.6 -0.5 -2.6 -0.5 0.4 0.7 0.5 0.8 -3.5 0.6 -3.5 0.7 -1.2 -0.7 -1.1 -0.7 0.6 1.1 0.7 1 -6.1 2.1 -6.2 2.1 -1.3 -1.8 -1.3 -1.7 0.5 2 0.5 2 -4.9 1.8 c -2.7 0.9 -5.3 1.7 -5.6 1.7 l -0.7 0 0.7 -1.2 0.7 -1.1 -1.2 0.7 -1.1 0.7 0.5 0.8 0.4 0.8 -6.1 2.6 -6.1 2.7 -1 -0.7 -1 -0.6 0.6 1 0.6 0.9 -7.5 3.7 -7.5 3.7 -1.1 -0.6 -1.1 -0.7 0.6 1.1 0.7 1 -5 3.1 c -2.8 1.7 -5.3 3.1 -5.6 3.1 l -0.5 0 0.6 -0.9 0.5 -1 -0.9 -0.5 -0.9 -0.6 0.2 1.7 0.3 1.8 -11 7.5 -11.1 7.5 -0.9 -0.3 -0.8 -0.2 0.5 0.9 0.6 1 -2.1 1.5 -2.2 1.5 -1 -0.6 -1 -0.6 0.7 1.1 0.6 1.1 -1 0.6 -1 0.6 0 -1.6 0 -1.6 -1.4 1.3 -1.4 1.3 1 0.6 0.9 0.6 -4.9 4.2 c -2.7 2.2 -5.5 4.1 -6.1 4.1 l -1.2 0 0.5 0.8 0.5 0.8 -8 8 c -4.4 4.3 -8.2 7.8 -8.6 7.7 -0.3 -0.1 -1 -0.7 -1.5 -1.5 l -1 -1.3 0.5 1.5 0.4 1.5 1.2 -0.2 1.1 -0.3 0 0.8 c 0 0.5 -1 1.8 -2.3 3 l -2.3 2.2 -0.8 -0.7 -0.8 -0.8 0.4 1.5 0.3 1.5 -1.3 -0.3 -1.3 -0.2 0.6 1 0.7 1.1 -1.2 1.4 -1.2 1.5 -1.1 -0.7 -1 -0.6 0.6 1 0.6 1 -2.5 3.4 -2.5 3.4 -1 -0.2 -0.9 -0.3 0.1 0.8 c 0.1 0.4 0.1 1.2 0 1.7 l -0.1 1 -1.1 -1.5 -1 -1.5 0.3 2.5 0.3 2.5 -1.2 0 c -0.6 0 -1.5 0.4 -2 0.9 l -0.8 0.9 1.4 -0.8 1.4 -0.8 -0.5 1.4 -0.5 1.4 -1.2 -0.2 -1.1 -0.3 0.1 0.8 c 0.3 1.5 -0.2 2.8 -2 5.1 l -1.8 2.3 0 -1.6 0 -1.6 0.9 0 0.8 0 -1.2 -2 c -0.7 -1.1 -1.9 -2.2 -2.7 -2.5 l -1.4 -0.5 1.2 1.3 1.1 1.4 -4 4.9 c -2.2 2.7 -4 5.2 -4 5.6 l 0 0.8 1.5 0 1.5 0 -1.5 3.8 c -0.9 2 -2.2 4.2 -3 4.8 l -1.4 1.1 1.1 1.1 1.2 1.2 -1 0 -1.1 0 -1.6 -4 -1.5 -4 -1.5 0.6 -1.6 0.6 1.9 4.3 c 1 2.3 2 5.1 2.2 6.2 l 0.3 1.8 -3.4 7.7 -3.4 7.8 -0.8 -0.5 -0.8 -0.5 -0.7 1.1 -0.7 1.2 1.1 -0.7 1.2 -0.7 0 0.9 c 0 1.7 -2.8 7.7 -3.3 7.2 -0.3 -0.3 -0.9 -0.1 -1.4 0.4 l -0.8 0.9 1.3 -0.7 c 1.6 -0.9 1.5 -0.6 -0.7 5.6 -1.1 2.9 -3.3 9.8 -5 15.4 l -3.1 10 -2.5 15 c -1.4 8.2 -2.8 18.7 -3.1 23.4 l -0.7 8.5 -1.1 1.4 -1.1 1.5 1.1 -0.7 1.2 -0.7 -0.5 6.3 -0.5 6.2 -0.9 0.3 c -0.5 0.2 -0.9 0.8 -0.9 1.3 l 0 1 0.9 -0.6 0.9 -0.5 0.4 7.5 0.3 7.5 -1.5 0.4 -1.5 0.4 1.8 0.1 1.8 0.1 -0.2 6.5 -0.2 6.5 0.6 0.7 c 0.4 0.3 0.7 1.6 0.6 2.7 l 0 2.1 -0.9 -2.2 c -1.2 -3 -1.8 -2.9 -1.2 0.2 l 0.4 2.5 1 0 1 0 -0.5 2 -0.5 2 0.9 -0.6 0.9 -0.5 0 2.7 c 0 1.4 1.2 8.3 2.6 15.3 l 2.7 12.6 -0.1 4 0 4 0.7 -2 0.8 -1.9 0.7 2.9 c 0.4 1.7 0.9 3.8 1.3 4.9 l 0.5 1.9 -1.3 -0.7 -1.4 -0.7 1.6 1.3 1.6 1.3 1.2 3.6 1.2 3.6 -0.7 1.9 -0.6 1.9 0.9 -1.2 0.9 -1.2 4.4 10.2 c 2.5 5.6 4.4 10.8 4.4 11.4 l -0.2 1.3 0.8 -0.5 0.7 -0.4 1.1 2.4 1.2 2.5 -0.9 0 -0.9 0 0.5 2 0.5 2 0.9 0 0.8 0 -0.5 -1.7 c -0.3 -1 0.5 0 1.7 2.2 l 2.3 4 -0.3 1.8 -0.2 1.7 1.5 0 1.5 0 1.1 2 1.1 2 -0.7 1.2 -0.7 1.1 1.1 -0.6 1 -0.7 3.1 5 c 1.7 2.7 2.8 5 2.4 5 -0.4 0 0.3 0.7 1.5 1.6 l 2.3 1.6 -0.5 1.4 -0.5 1.4 0.8 -0.3 c 0.4 -0.1 2 1.3 3.5 3 l 2.7 3.3 -0.7 1.1 -0.7 1.2 1 -0.6 1 -0.7 1.8 2 1.7 1.9 -0.8 1.3 -0.7 1.3 0.8 -0.8 0.9 -0.7 2.3 2.2 c 1.3 1.2 2.3 2.5 2.3 2.9 0 0.4 2.5 3.1 5.5 6 l 5.5 5.2 0 1.2 0 1.3 1.6 0.6 1.5 0.6 -0.7 1.2 -0.7 1.3 0.8 -0.7 0.8 -0.7 1.9 1 2 1.1 -1.9 1.3 -1.8 1.4 2.3 -0.6 2.2 -0.5 0 1.1 0 1.2 0.9 -0.5 0.8 -0.6 1.7 1.9 1.6 1.8 -0.7 0.7 -0.8 0.8 1.5 -0.4 1.5 -0.3 -0.2 1.2 -0.3 1.2 1.5 -0.5 1.4 -0.6 1.3 2.1 c 0.7 1.2 1.6 2.1 2 2.1 0.9 0 19.1 13 19.9 14.3 0.3 0.5 0.8 0.8 1 0.6 0.2 -0.1 1.4 0.1 2.6 0.5 l 2.3 0.7 -0.3 1.1 -0.2 1 2.3 0.9 2.3 0.9 -0.6 -1.1 -0.7 -1 3.9 0.7 c 2.1 0.4 4.7 0.8 5.8 1 3.4 0.7 23.3 0.5 27.1 -0.2 l 3.7 -0.7 -0.6 1.4 c -0.3 0.8 -1.1 3.1 -1.8 5.2 -0.7 2 -1.5 3.7 -1.9 3.7 -0.4 0 -1.4 -1.8 -2.3 -4 l -1.5 -4 -1.5 0.6 -1.5 0.6 1.4 3.4 1.4 3.4 -1.2 0.1 -1.3 0 2 0.9 2 0.9 -4 0 -4 0.1 1.3 -0.9 1.4 -0.8 -2.6 -0.5 -2.5 -0.5 -0.6 1.5 -0.5 1.4 -2.5 -0.4 -2.5 -0.5 0 0.8 0 0.9 10.3 5 c 5.6 2.8 9.4 4.8 8.5 4.6 l -1.7 -0.5 -0.5 0.8 -0.5 0.7 4.6 0.3 4.6 0.2 1.7 0.9 1.7 0.9 4.1 -0.2 4.1 -0.1 -0.5 -0.8 -0.5 -0.8 1.8 -0.2 c 1 0 2.9 0 4.1 0.1 l 2.4 0.2 -0.7 -1 -0.6 -1.1 1 0 c 0.5 0 1.1 0.5 1.3 1.2 l 0.4 1.1 2 -1.1 1.9 -1.1 -2 -0.1 -2 -0.1 1.8 -1 1.8 -1.1 1.5 0.6 1.5 0.6 -0.6 -0.9 -0.5 -1 2 -0.6 2 -0.6 1.1 0.7 1.2 0.7 -0.6 -1 -0.6 -1 3.5 -1.7 3.5 -1.6 -0.7 1.1 -0.6 1.1 2.1 -1.1 c 1.1 -0.7 2.1 -1.6 2.1 -2 0 -1.1 13.1 -9.7 14.2 -9.3 0.4 0.1 0.7 -0.1 0.6 -0.5 -0.1 -0.5 2.2 -3.2 5.1 -6.1 2.9 -2.9 6.5 -7.3 8 -9.7 l 2.8 -4.4 0.7 0.7 0.8 0.7 -0.4 -1 c -0.4 -1.3 2.2 -7.5 3.2 -7.5 0.4 0 0.7 -0.6 0.7 -1.2 -0.1 -0.7 0.5 -4 1.3 -7.3 l 1.4 -6 0.1 -31.1 0 -31 -3 -4 c -1.6 -2.1 -2.9 -4.3 -2.7 -4.7 l 0.2 -0.8 -0.9 0.6 -1 0.6 -1.1 -2.1 -1.1 -2.1 -0.9 0.6 -0.8 0.5 0.5 2 0.5 2 -1.1 1.3 -1.1 1.4 0.7 0.7 c 0.4 0.3 0.7 1.5 0.8 2.6 l 0.2 2 -1.6 0 -1.6 0 1.5 1 1.5 0.9 -0.2 18.8 -0.2 18.8 -1.2 8.5 -1.2 8.5 -1.8 5.4 -1.9 5.3 -2.1 1.9 -2.2 1.9 1.4 0 1.4 0 -1.3 0.9 c -0.8 0.4 -1.3 1.1 -1.3 1.5 0 0.3 -0.2 1.3 -0.5 2.1 l -0.6 1.5 -0.9 -0.6 -0.9 -0.5 0.6 1.4 0.5 1.5 -2.3 1.6 -2.2 1.6 0.9 0 0.9 0 -4.4 4.5 -4.3 4.4 -1 -0.6 -1 -0.6 0.6 1 0.6 1 -4.2 3 c -2.3 1.7 -5.5 3.7 -7.2 4.5 l -3 1.5 -1.2 -0.4 -1.2 -0.4 -1.1 2.1 -1.2 2.2 -1.9 -0.5 -1.9 -0.5 0.5 0.8 0.5 0.7 -4.8 1.9 -4.7 1.8 -6 -0.1 -6 -0.1 3.5 0.8 3.5 0.7 -1.6 0.2 c -0.9 0 -3 0.4 -4.7 0.7 l -3.1 0.6 0.3 -1.3 c 0.3 -1.7 2.7 -9.1 3.3 -10.2 l 0.5 -0.8 1.4 1.2 1.4 1.1 0.1 -0.8 c 0.1 -0.5 0.1 -1.2 0 -1.6 l -0.1 -0.8 1.4 0 c 0.8 0 5.1 -1.5 9.5 -3.4 l 8 -3.4 0.5 0.6 0.6 0.5 0 -1.2 0 -1.3 1.3 0.5 1.4 0.5 1.4 -1 1.4 -1 -2 0.6 -2 0.6 1.9 -1.5 1.9 -1.4 1 0.6 1 0.6 -0.6 -1 -0.6 -1 3 -2.2 2.9 -2.2 1 0.6 1 0.6 -0.2 -0.8 c -0.2 -0.4 1 -2.5 2.6 -4.5 l 2.8 -3.8 1.1 0.7 1 0.6 -0.6 -1 -0.6 -0.9 1.8 -2.7 1.8 -2.7 0.8 0.7 0.8 0.8 -0.6 -1.1 -0.7 -1.2 2.5 -5.5 2.6 -5.5 1.4 -6.9 1.5 -6.8 0.5 -19 c 0.3 -10.4 0.7 -24.4 1 -31 l 0.4 -12 -9.4 -10 c -5.2 -5.5 -9.8 -10.4 -10.2 -10.8 -0.5 -0.5 -8.2 -8 -17.3 -16.7 l -16.5 -15.8 -0.3 7 -0.3 7 -1.5 -1.3 -1.5 -1.2 -0.5 1.9 c -0.3 1 -1.6 4.4 -2.8 7.4 l -2.2 5.5 -2.5 0.3 -2.4 0.3 -2.1 -5.5 -2.2 -5.5 1.5 -0.5 1.5 -0.6 1.5 4 c 0.9 2.2 1.9 4 2.2 4 0.3 0 1.6 -2.7 2.8 -6 l 2.2 -6 -1.5 0 c -2.2 0 -1.7 -1.1 2.6 -6.4 4.5 -5.4 4.4 -5.1 3 -7.7 l -1.1 -1.9 -40.6 0 -40.7 0 -4.2 -4.1 -4.2 -4.2 0.5 -1.6 0.5 -1.6 -0.9 1.2 -0.9 1.3 -5.4 -5.5 -5.4 -5.5 -6.6 0 -6.7 0 -2.1 -2.3 -2.2 -2.3 0.7 -0.9 0.8 -0.8 -1.1 0.6 -1.2 0.7 -5.1 -5.7 -5 -5.7 0.9 -0.6 0.9 -0.6 12.3 0.2 12.3 0.1 12 12.3 12 12.2 -0.3 1.1 -0.4 1.2 0.8 -0.7 0.7 -0.8 3.3 2 3.2 2.1 0.8 -1.2 0.7 -1.2 -1.4 0.8 -1.4 0.8 1.1 -1.2 1.1 -1.2 13.7 0.3 13.6 0.3 0 -0.5 c 0 -0.6 -12.9 -14 -37.3 -38.8 l -16.1 -16.2 -4.3 1.6 -4.3 1.7 -5.5 -0.6 -5.6 -0.6 -3.2 -1.8 -3.2 -1.9 -3 -4.2 -2.9 -4.3 -0.4 -6.7 -0.4 -6.8 2.2 -4.7 2.2 -4.7 3.1 -2.6 3 -2.5 1.4 0.5 1.4 0.6 -0.5 -0.9 -0.6 -0.9 2.3 -0.6 c 1.2 -0.3 4.4 -0.6 7 -0.6 l 4.8 0 -0.5 0.9 -0.6 0.9 1.6 0.6 c 2.3 0.9 2.6 0.8 1.8 -0.6 l -0.7 -1.1 1.7 0.6 c 1 0.4 2 0.7 2.2 0.7 0.3 0 0.2 0.5 -0.2 1.2 l -0.7 1.1 1.2 -0.7 1.2 -0.8 3.1 3.4 c 1.7 1.8 3.7 4.7 4.4 6.5 l 1.4 3.2 0 5.8 c 0 3.2 -0.3 6.8 -0.6 8 l -0.6 2.2 -1.6 -0.5 -1.7 -0.6 2 1.3 c 2.5 1.6 6.1 6.1 5.7 7.2 l -0.2 0.8 0.8 -0.5 0.9 -0.5 3.9 4.1 3.9 4.2 -2 -1.4 -2 -1.5 1.4 1.7 1.3 1.8 0.7 -0.5 0.7 -0.4 9.8 9.8 9.7 9.7 -0.8 0.8 -0.8 0.8 1.5 -0.4 1.5 -0.3 -0.3 1.3 -0.2 1.2 1.2 -0.2 1.3 -0.3 -0.3 1.3 -0.2 1.2 1.2 -0.2 1.3 -0.3 -0.2 2 -0.2 2 0.5 -1.3 0.6 -1.4 2.9 2.8 2.8 2.7 -0.6 1 -0.6 1 1 -0.6 1 -0.6 6.4 7 c 3.5 3.9 6.3 7.4 6.2 7.8 -0.2 1 0.4 1 10.5 1.4 4.5 0.1 8.2 0 8.2 -0.3 0 -0.3 -7.4 -7.9 -16.5 -17 l -16.5 -16.5 1.8 -0.7 1.7 -0.7 -1.7 0 -1.8 -0.1 0 -7.3 0 -7.3 1.3 -1.3 1.2 -1.4 -1.2 0.7 -1.3 0.7 0 -2.1 0 -2.1 1 0.6 1 0.6 0 -1 c 0 -0.5 -0.6 -1.1 -1.2 -1.4 l -1.3 -0.4 1.3 -2.2 1.2 -2.1 -1.1 0 -1 0 0.5 -0.9 0.6 -0.9 -2.5 -3.1 c -1.5 -1.6 -2.7 -3.4 -2.8 -3.8 -0.1 -0.4 -0.5 -0.7 -0.8 -0.6 -0.7 0.2 -8.5 -7.6 -8.1 -8.2 0.1 -0.3 0 -0.4 -0.3 -0.2 -0.2 0.1 -3.8 -3.1 -7.9 -7.2 l -7.5 -7.5 0.6 -1 0.6 -1.1 -0.8 0.8 -0.9 0.8 -9.3 -9.3 -9.2 -9.2 1.2 -1.5 1.2 -1.6 -1.6 1.2 -1.6 1.3 -1.5 -1.8 -1.5 -1.7 0.5 -9.7 0.4 -9.8 0.8 0 c 0.4 0 1.5 0.9 2.5 2 l 1.9 2.1 -1.7 -0.7 -1.7 -0.6 0 1.1 0 1.1 2.2 0 2.1 0 7.1 6.8 c 3.9 3.7 7.4 7.5 7.8 8.4 l 0.7 1.8 -2.2 2.1 -2.2 2.2 1.8 -0.6 1.7 -0.6 0 1.1 0 1.2 13.8 13.5 13.7 13.5 -0.3 0.9 -0.2 0.8 0.8 -0.5 0.9 -0.5 5.8 5.9 5.8 5.9 0.1 16.4 c 0.1 9.1 0.3 16.5 0.6 16.5 0.3 0 1.1 0 1.8 0.1 l 1.3 0.1 1 3 1.1 3 0.9 -0.6 0.9 -0.5 0 1.5 0 1.5 1.4 -0.5 1.3 -0.5 1.7 2.6 1.8 2.7 -0.6 1.5 -0.6 1.6 1.5 -1.3 1.5 -1.2 0.1 0.8 c 0.1 0.5 0.1 1.3 0 1.7 l -0.1 0.8 1 -0.6 1 -0.6 6.4 6.4 6.5 6.5 -0.6 0.6 -0.6 0.6 1.5 0 1.5 0 2 2.3 c 1.1 1.2 2.4 3.2 2.8 4.5 l 0.6 2.2 0.8 -0.4 0.7 -0.5 3.9 3.5 c 2.2 2 3.4 3.2 2.6 2.8 l -1.4 -0.7 0.7 1.1 c 0.4 0.7 1.3 1.2 2 1.2 l 1.4 0 3.8 4.7 3.9 4.8 -0.3 1 -0.4 1 0.8 -0.7 0.7 -0.8 1.3 1.1 1.4 1.1 -0.7 1.2 -0.6 1.1 0.8 -0.7 0.8 -0.8 1.3 1.1 1.4 1.1 -0.6 0.9 -0.5 0.9 1.3 -0.2 1.3 -0.3 -0.3 1.3 -0.2 1.3 0.9 -0.5 1 -0.6 1.3 1.5 c 0.7 0.9 2.3 2.6 3.5 3.7 l 2.2 2.1 -0.6 1.1 -0.6 1.1 0.8 -0.8 0.9 -0.7 2.7 2.6 2.8 2.7 -0.5 0.9 -0.5 0.8 1.3 -0.2 1.3 -0.3 -0.3 1.3 -0.2 1.3 0.9 -0.6 1 -0.6 3.3 3.7 c 1.8 2 3.3 4.1 3.3 4.7 l 0.1 1.2 1.1 -0.2 1.2 -0.3 3 3.7 3 3.6 2.1 -3.6 2.2 -3.7 1.1 0.7 1 0.6 -0.6 -1.1 -0.7 -1 0.6 -1.6 0.6 -1.6 0.9 0.6 0.9 0.5 -0.6 -1.5 -0.6 -1.6 1.4 -0.5 1.5 -0.6 0.1 -1.2 c 0 -0.7 1.2 -4.1 2.7 -7.6 l 2.7 -6.4 0.5 -7.8 0.6 -7.8 -6.7 -6.9 -6.6 -6.9 0.7 -0.7 0.8 -0.8 -1 0.4 -1.1 0.3 -7.2 -6.4 -7.2 -6.4 0.6 -0.8 0.5 -0.9 -0.9 0 c -0.6 0 -10.9 -9.8 -23.1 -21.7 l -22.1 -21.8 0 -10.6 0 -10.5 -3.6 -3.2 -3.5 -3.2 0.6 -1 0.6 -1 -1.4 0.6 -1.4 0.5 -3.6 -4.1 c -2.1 -2.2 -3.7 -4.5 -3.7 -5.2 l 0 -1.1 -0.6 0.6 -0.7 0.6 -4.8 -5 -4.9 -5.1 0 -13 0 -12.9 1 0.6 1 0.6 0 -1 c 0 -0.6 -0.4 -1.1 -0.8 -1.1 l -0.9 0 -1.8 -4.2 c -1 -2.4 -1.7 -4.7 -1.6 -5.1 l 0.1 -0.8 -0.8 0.5 -0.9 0.6 -4.2 -4.6 -4.1 -4.5 0 1.5 0 1.6 -1.6 0 -1.5 0 0.6 -1 0.6 -1 -1 0 c -0.6 0 -1.1 0.4 -1.1 0.9 l 0 1 -2 0.6 -1.9 0.6 -3.5 -0.7 -3.6 -0.6 0.7 -1.1 0.6 -1 -1.1 0.7 -1.2 0.7 -2.2 -1.2 c -1.3 -0.6 -3.3 -2 -4.5 -3.1 l -2.2 -2 0.6 -1.6 0.6 -1.5 -1 0.6 -1.1 0.7 -1.3 -3.7 -1.3 -3.8 0 -5.6 0.1 -5.7 2 -3.3 2 -3.4 1 0.2 1.1 0.2 -0.2 -1.6 -0.1 -1.7 4.5 -2.5 4.5 -2.6 6 0.1 6 0.1 3.1 1.6 3.1 1.6 3.2 3.6 c 2.8 3.3 3.5 4.7 3.2 6.8 0 0.4 0.4 0.7 0.9 0.7 l 1 0 0 1.8 0 1.7 -0.9 -1.3 -0.8 -1.4 -0.5 2 -0.5 1.9 1.6 -0.1 1.6 -0.1 0.3 3.1 0.3 3.1 -1.5 1.6 c -0.9 0.9 -1.6 1.8 -1.6 2.2 l 0 0.6 1.1 -0.7 1.1 -0.6 -1.7 3.1 -1.6 3.2 4.7 5.2 c 2.6 2.9 5.4 6.3 6.2 7.5 l 1.5 2.4 -1.4 0.9 -1.4 0.9 1.4 0 1.4 0 -0.6 0.6 -0.7 0.7 -1.3 -1.1 -1.3 -1.1 -1.3 0.8 -1.4 0.9 0.7 1.1 0.7 1.1 2.4 -0.4 2.3 -0.4 0.5 1.9 0.5 2 -1.2 -1 -1.2 -1 -1.4 0.9 -1.5 0.9 1 1 c 0.6 0.5 1.9 1.1 2.9 1.3 l 2 0.3 -1.5 1.5 -1.4 1.5 -0.1 2.2 0 2.2 0.7 -0.4 0.7 -0.5 0.5 3.8 0.4 3.7 -1.4 1.7 -1.4 1.6 1.2 0.8 1.2 0.7 -0.7 -1.1 -0.7 -1.2 1 0 1.1 0 0 1.3 0 1.3 4 3.9 3.9 3.8 -0.6 1 -0.6 1 1 -0.6 1 -0.6 2.7 2.8 2.6 2.7 -0.7 0.8 -0.8 0.8 1.5 -0.4 1.5 -0.3 -0.3 1.3 -0.2 1.3 0.8 -0.5 0.9 -0.5 5.3 5.4 5.3 5.3 0.3 10.2 0.3 10.1 1 1.3 1.1 1.3 -0.8 0.8 -0.7 0.8 1.1 -0.6 1 -0.6 7.9 8 8 7.9 -1.3 0 -1.3 0 0.6 1.1 0.7 1 1.3 -0.5 1.3 -0.4 1 1 1 1 -0.5 1.7 -0.5 1.6 1 -1.3 0.9 -1.3 5.1 5.5 5.1 5.6 0.5 -1.7 c 0.2 -1 0.3 -9.1 0.2 -18 l -0.3 -16.2 -4.4 -4.7 c -2.4 -2.5 -5.3 -5.5 -6.4 -6.7 l -2 -2 1.5 0.8 1.5 0.8 -0.8 -0.9 c -0.5 -0.5 -1.2 -0.9 -1.5 -0.9 -0.4 -0.1 -1.7 -0.7 -2.9 -1.5 l -2.3 -1.5 0 -1.6 0 -1.7 -1.7 -1.3 -1.8 -1.4 1.4 2 c 0.8 1.1 -1.1 -0.4 -4.2 -3.4 l -5.6 -5.4 0.6 -1 0.6 -1 -0.9 0.6 -1 0.6 -4.4 -4.6 -4.5 -4.5 0.3 -11.9 0.3 -11.9 -4 -1.6 -4.1 -1.6 0 -1.8 0 -1.8 1.3 -0.5 1.2 -0.5 -1.2 -0.1 -1.3 -0.1 0 -4.2 0 -4.3 -2.6 3.3 c -1.4 1.7 -3 3.2 -3.6 3.2 l -1 0 0.6 -1.6 0.6 -1.5 -0.9 0.5 -0.9 0.6 -0.6 -3.1 c -0.3 -1.8 -0.6 -4.9 -0.6 -7.1 l 0 -4 1.5 0.6 1.5 0.5 0 -2.2 0 -2.2 -1 1.5 -1 1.5 0 -1.7 0 -1.6 3.3 -4.3 3.2 -4.3 3.3 -1.9 3.3 -2 5.2 -0.2 5.2 -0.3 3.3 1 3.3 0.9 -0.7 1.1 -0.7 1.1 1.3 -0.8 1.2 -0.8 0.7 0.9 c 0.3 0.5 1.5 1.4 2.6 2 l 2 1.1 2.2 3.9 2.1 3.9 0.7 4.8 0.7 4.7 -1.6 -0.6 -1.6 -0.6 0.1 2.8 0 2.9 1 -2 0.9 -2 -0.5 3.5 -0.5 3.4 -1.3 0.8 -1.2 0.8 0.9 0 1 0 -2.8 2.9 -2.7 2.9 -3.8 1.7 -3.8 1.6 -1.6 2.9 -1.7 2.9 0.9 0.5 1 0.6 0.4 -2.2 0.4 -2.3 0.2 2.7 0.1 2.6 -1.2 0.4 -1.2 0.4 0.9 1.5 c 1.3 2 1.4 3.5 0.6 6.5 l -0.7 2.6 6.6 7 6.5 7.1 -0.3 1.1 -0.4 1.1 0.8 -0.8 0.7 -0.7 12.9 12.7 12.8 12.7 -0.6 1.8 -0.5 1.8 0.9 0 1 0 -0.1 3.4 -0.1 3.5 -1 -0.6 -0.9 -0.6 0.8 1.3 0.8 1.3 -0.1 18.6 -0.1 18.6 3.4 3.9 3.4 3.9 -0.2 1.1 -0.2 1.1 1.1 -0.2 1.1 -0.2 4.9 5 c 2.6 2.7 5.1 4.9 5.4 4.9 l 0.5 0 -0.1 -48.5 -0.1 -48.5 -1.2 -1.3 -1.1 -1.4 0.8 -0.8 0.7 -0.8 -1.1 0.6 -1.1 0.6 -4.6 -4.7 c -2.5 -2.6 -4.6 -5 -4.7 -5.4 0 -0.5 -0.3 -0.8 -0.7 -0.9 -0.5 0 -1.6 -0.8 -2.6 -1.6 l -1.7 -1.7 1.2 -0.9 1.3 -0.9 -1.7 0.5 -1.6 0.6 -1.6 -1.8 c -0.9 -1 -1.5 -2 -1.4 -2.2 0.2 -0.2 0.1 -0.3 -0.1 -0.2 -0.2 0.2 -1 -0.2 -1.8 -0.8 l -1.3 -1.1 0 -17.5 0 -17.5 -7.5 -7.4 -7.5 -7.4 0 -1.5 0 -1.6 -0.9 0.5 -0.8 0.5 -3.4 -3.7 c -1.9 -2 -3.3 -4 -3.2 -4.4 0.2 -0.5 0 -0.7 -0.5 -0.6 -0.4 0.2 -2.1 -1 -3.9 -2.6 l -3.2 -2.9 0.6 -1.1 0.6 -1.1 -0.8 0.7 -0.8 0.8 -1.3 -1.1 -1.4 -1.1 0.7 -1.1 0.6 -1 -1 0.6 -1.1 0.7 -1.1 -1.3 -1.1 -1.4 -0.1 -2.9 c -0.1 -1.6 -0.1 -3.5 0 -4.2 l 0.1 -1.3 1.3 0.7 1.2 0.7 -1.2 -1.4 -1.3 -1.3 0 -1.8 0 -1.8 1.3 0 1.2 0 -1.2 -0.8 -1.3 -0.8 -0.5 -4.1 -0.5 -4.1 2 -0.5 1.9 -0.5 1.1 1.2 1 1.3 -0.8 0.8 -0.7 0.8 1.1 -0.6 1.1 -0.6 2.9 3.2 c 1.6 1.8 2.2 2.6 1.4 2 -0.8 -0.7 -1.8 -1.3 -2.3 -1.3 l -0.9 0 1.2 1.4 1.2 1.5 -0.3 3.8 -0.3 3.8 1.2 -0.2 1.2 -0.3 0.2 2.3 c 0 1.2 0.1 2.8 0.1 3.5 l -0.1 1.2 1.3 -0.2 1.3 -0.3 6.1 6 6.1 6 0 1.3 0 1.4 -1.7 -0.7 -1.8 -0.6 1.2 1.2 1.2 1.2 1.6 -1.3 1.5 -1.2 0.1 0.8 c 0.1 0.5 0.1 1.3 0 1.7 l -0.1 0.8 0.8 -0.5 0.9 -0.6 1.7 1.9 1.6 1.8 -0.5 0.6 -0.5 0.7 0.7 -0.5 0.7 -0.6 6.8 6.8 6.8 6.7 0 3.7 0 3.7 -1.2 0.5 -1.3 0.5 1.3 0.1 1.2 0.1 0 13.4 0 13.5 1 0.6 1 0.6 0 2 0 1.9 1 0 1 0 0 -1.2 0 -1.2 3 3.4 c 1.7 1.8 3 3.9 3 4.6 0 0.7 0.5 1.6 1.2 2 l 1.1 0.7 -0.8 -1.4 -0.8 -1.4 1.4 1.3 c 0.7 0.6 1.7 1.2 2.2 1.2 l 0.9 0 -0.5 -2 -0.5 -2 0.8 0 0.9 0 -0.5 -3.2 c -0.3 -1.8 -0.8 -15.4 -1 -30.3 -0.2 -14.8 -0.4 -27.5 -0.5 -28.2 l -0.2 -1.2 -0.7 0.4 -0.7 0.4 -2.2 -2.3 -2.1 -2.2 0.7 -0.9 0.8 -0.8 -1.3 0.7 -1.2 0.7 -5.5 -5.2 -5.4 -5.3 0.5 -0.8 0.5 -0.8 -1.3 0.2 -1.3 0.3 0.1 -1.7 0.2 -1.8 -1 0.6 -1 0.6 -3.4 -3.3 -3.4 -3.3 0.1 -1.5 0.1 -1.6 0.5 1.3 c 0.2 0.6 0.9 1.2 1.5 1.2 l 1.1 0 -1.7 -1.9 -1.8 -1.9 -0.4 -4 -0.5 -4 1 -0.6 0.9 -0.6 -0.8 -3.5 -0.8 -3.5 0.9 -0.6 0.9 -0.5 1.3 0.7 c 0.6 0.4 0.2 -0.3 -1 -1.5 -1.3 -1.2 -2.3 -2.5 -2.3 -2.9 0 -0.3 2.9 2.3 6.5 5.8 l 6.5 6.4 -0.1 2.1 0 2 -0.9 -2 -0.9 -2 0 2.3 -0.1 2.2 1 0 1 0 0 1.7 0 1.6 2.7 3.5 2.7 3.5 -1.2 -0.7 -1.2 -0.7 0 1.6 0 1.6 2.3 -0.3 2.2 -0.3 -0.3 1.5 -0.4 1.5 0.8 -0.7 0.7 -0.8 1.3 1.1 1.4 1.1 -0.6 0.9 -0.5 0.9 0.8 -0.2 c 0.4 -0.1 1.8 0.6 3 1.6 l 2.2 2 -0.5 0.8 -0.5 0.8 0.9 -0.2 0.9 -0.3 4.8 4.4 4.7 4.4 0.4 10.2 0.4 10.3 -0.9 4.6 -0.8 4.6 0.7 0 0.7 0 -0.1 94.3 -0.1 94.2 -3.2 6.8 c -1.8 3.7 -3.5 6.7 -3.8 6.7 l -0.6 0 0.7 -1.2 0.7 -1.1 -1.2 0.7 -1.2 0.8 0.4 1.1 0.4 1.2 -1.9 3.8 -1.9 3.8 -1.1 -0.7 -1.1 -0.7 0.5 1.4 0.5 1.4 -2.3 4.1 -2.4 4.1 2 1.8 2 1.8 -0.7 1 -0.6 1 1 -0.6 1 -0.6 4.8 4.9 c 2.7 2.8 4.6 5 4.2 5 -0.4 0 0.2 0.9 1.3 2 l 2 2 0 4.3 c 0 2.3 0.1 14.1 0.1 26.2 0.1 12.1 0.1 26.2 0 31.3 l -0.1 9.3 -0.8 -0.5 -0.8 -0.5 0.4 3 0.4 2.9 -1.6 0 -1.6 0 0 1.3 c 0 0.6 -0.3 2.3 -0.5 3.7 l -0.5 2.5 1.4 -3.5 c 2.3 -5.6 1.8 -1.8 -0.5 4.4 l -2.2 5.6 -0.9 -0.6 -0.9 -0.6 0.2 1.3 c 0.3 2.5 -0.1 3.5 -2.1 5.7 -1.2 1.2 -1.8 2.2 -1.5 2.2 0.4 0 -0.8 1.8 -2.5 4 l -3.2 4 -1 -0.6 -1.1 -0.7 0.7 1.2 0.8 1.2 -4.6 4.5 -4.7 4.5 -1.1 -0.7 -1.1 -0.7 0.7 1.1 0.6 1.1 -4.6 3.2 c -2.6 1.8 -4.4 2.7 -4 2.1 l 0.6 -1.1 -2 0.2 -2 0.1 0 1.8 0 1.8 -5 2.5 c -2.7 1.4 -5 2.3 -5 1.9 0 -0.3 -0.7 0.2 -1.6 1.1 l -1.7 1.6 -1.4 -0.5 -1.4 -0.6 0.7 1.2 0.7 1.1 -2.1 -0.5 -2.2 -0.6 0.5 0.8 0.5 0.8 -6.7 2.2 c -3.8 1.3 -7.1 2.5 -7.5 2.9 l -0.7 0.6 2.4 0.1 2.5 0.2 -0.5 -0.8 -0.4 -0.7 4 1.1 4 1 -1.7 0.6 -1.8 0.7 1.9 0.7 1.9 0.7 -1.1 0.7 -1.2 0.8 10.9 0 10.9 0.1 1.6 1.3 1.5 1.3 0.7 -0.7 0.6 -0.6 -1.4 -0.1 -1.4 0 4.5 -1.5 c 5.2 -1.6 6 -1.7 4.1 -0.5 l -1.3 0.8 4.1 -0.1 c 2.3 0 3.7 -0.2 3.1 -0.4 l -1 -0.4 2.2 -2 2.3 -2 -2.7 1.6 c -1.5 0.9 -3.3 1.6 -4 1.6 l -1.3 0 7.2 -4.2 c 4 -2.4 9.2 -5.6 11.6 -7.3 l 4.4 -3 2.2 -3 c 1.2 -1.6 3.2 -4.4 4.5 -6.2 l 2.3 -3.2 0.8 0.7 0.7 0.7 -0.3 -1 c -0.2 -0.5 1.1 -4 2.9 -7.6 l 3.2 -6.7 0 -137.2 0 -137.1 1.3 0.7 1.2 0.8 -1.2 -1.6 -1.3 -1.5 0.2 -47.1 0.2 -47.1 0.9 0.6 1 0.6 -0.8 -1.3 -0.8 -1.3 -0.4 -8.8 -0.3 -8.9 1.7 0 1.8 0 -1.5 -1 -1.5 -0.9 -0.1 -2.8 c 0 -1.5 -0.1 -5.4 -0.2 -8.5 l -0.2 -5.8 -1.3 0 c -0.7 0 -2.2 -0.7 -3.3 -1.5 l -1.9 -1.5 1.8 0.6 1.7 0.6 0 -1 0 -1.1 -2.2 0.4 -2.2 0.5 -1.8 -1.7 -1.8 -1.6 0.7 -1 0.6 -1 -1.1 0.7 -1.1 0.7 -1.7 -3.3 -1.7 -3.2 -0.5 -6.5 -0.5 -6.4 1 0.6 1 0.6 -0.4 -2.2 -0.5 -2.3 3.4 -4.4 3.3 -4.4 3.3 -1.9 3.2 -1.9 5.8 -0.5 5.7 -0.5 3 1.2 3 1.2 -1.2 0.5 -1.3 0.5 0 1.4 0 1.4 1.8 0 c 1 0 2.2 -0.3 2.5 -0.7 l 0.7 -0.6 -0.8 -1.2 c -0.4 -0.6 0.1 -0.2 1.1 0.8 0.9 1.1 1.7 1.6 1.7 1.2 l 0 -0.7 1.4 1.1 1.3 1.1 -0.4 2.8 -0.3 2.7 1 -2 1 -2 -0.5 2.5 c -0.2 1.4 -0.5 3.1 -0.5 3.8 0 0.6 -0.4 1.2 -0.8 1.2 l -0.9 0 -1.6 -4 -1.5 -4 -1.5 0.6 -1.5 0.5 2.2 5.5 2.1 5.4 2 0 c 2.7 0 4.1 -1.1 4.9 -3.5 l 0.5 -2 -0.4 3.8 -0.4 3.7 1.1 -0.6 1 -0.7 -0.7 3.4 c -0.3 1.9 -1.1 4.8 -1.6 6.5 l -0.9 3 -3.9 3.8 -3.9 3.8 -1.3 -0.7 -1.2 -0.8 0.6 1 0.7 1.1 -3 1.1 -3 1 -0.1 6.8 0 6.8 -0.9 -2 -0.9 -2 0 4.8 -0.1 4.8 1 -0.6 1 -0.6 0 1.6 0 1.6 -1 -0.6 -1 -0.6 0.1 3.3 0.1 3.3 0.8 -2.5 0.8 -2.5 0.1 15.8 0.1 15.8 -1 -0.6 -1 -0.6 0.1 4.8 0.2 4.8 0.7 -4 0.7 -4 0.1 6 0.1 6 -0.9 -2 -0.9 -2 0 2.3 -0.1 2.2 1 0 1 0 -0.1 9.8 -0.2 9.7 -0.7 -4 -0.7 -4 0 7 -0.1 7 0.8 -3 0.8 -3 0.1 11.7 0.1 11.7 -1 0.6 -1 0.6 0.1 3.7 0.2 3.7 0.7 -3.5 0.7 -3.5 0.2 7.8 0.1 7.7 -1 0 -1 0 0.1 3.8 0.2 3.7 0.7 -3.5 0.7 -3.5 0 71.5 0 71.5 -0.7 -4 -0.7 -4 -0.2 4.8 -0.1 4.7 1 0 1 0 0 66.4 0 66.4 1 2.8 1.1 2.7 -0.5 1.4 -0.6 1.4 0.9 -0.5 0.9 -0.6 0.6 1.6 0.6 1.6 -0.7 1.1 -0.6 1.2 0.8 -0.8 0.9 -0.7 2.9 4.7 c 1.7 2.7 2.8 4.9 2.6 5.1 -0.2 0.2 0.4 0.8 1.4 1.3 l 1.7 1 -0.6 1.1 -0.7 1.1 1 -0.6 0.9 -0.6 1.7 2 c 0.9 1 1.7 2.2 1.7 2.5 l 0 0.6 -1.7 -0.6 -1.8 -0.6 1.7 1.3 1.8 1.4 -1.5 1.9 c -1.8 2.4 -1.9 3.4 -0.1 3.4 l 1.4 0 -0.5 2 c -0.3 1.1 -0.9 2.2 -1.2 2.5 l -0.7 0.4 -4.3 -3.9 -4.3 -3.9 0.8 -1.3 0.7 -1.3 -0.7 0.7 -0.8 0.6 -1.7 -1.7 c -1 -1 -1.8 -2.5 -1.9 -3.4 -0.1 -0.9 -0.3 -2.4 -0.4 -3.2 l -0.1 -1.5 -1.4 1.1 -1.3 1.1 -0.9 -2.5 c -0.5 -1.4 -1.5 -2.8 -2 -3.2 l -1.1 -0.6 -0.6 1.5 -0.6 1.6 -1.1 -0.7 -1 -0.6 0.7 1.1 0.7 1.2 -1 1.8 c -2 3.7 -9.1 11.6 -14.3 15.8 l -5.3 4.4 -1.3 -0.5 -1.3 -0.5 0.6 1 0.6 0.9 -4 2.1 c -2.2 1.1 -4.7 2 -5.6 2 l -1.6 0 0.6 -1 0.6 -1 -2 0 -2.1 0 1.7 2 1.7 2 3.8 0 3.7 0 0.7 1.1 0.7 1.1 -2.3 -0.7 -2.3 -0.7 0.7 1.1 0.7 1.1 3 0 3 0 -0.7 -1.1 -0.7 -1.2 9.9 0.7 c 12 0.8 10.3 0.8 24.9 0.1 l 12 -0.5 -2 0.9 -2 1 3.8 0 3.8 0.1 0.5 -1.5 0.6 -1.5 2.4 0 2.4 0 0 1.3 0 1.2 1 -1.5 0.9 -1.5 -0.8 -0.8 c -0.4 -0.4 -2.7 -1.8 -5.1 -3.1 l -4.3 -2.3 -0.2 -1.4 c -0.2 -0.8 0.2 -2.5 0.7 -3.8 l 0.9 -2.4 1.1 1.1 1.2 1.2 1.7 -1.6 1.7 -1.6 2.4 1.3 2.3 1.2 -1.3 0.5 c -1.9 0.6 -1.4 1.8 0.8 1.9 l 2 0.2 -0.6 -1.2 c -0.3 -0.7 0.4 -0.1 1.6 1.3 1.2 1.4 1.9 2 1.6 1.3 l -0.6 -1.1 4 1.5 3.9 1.6 -0.4 0.6 -0.4 0.7 3.7 0.3 c 2 0.1 4.8 0.2 6.2 0.2 1.4 0 5.7 0 9.7 -0.1 l 7.2 -0.1 -0.6 -1.5 -0.5 -1.4 1.6 0.6 1.6 0.6 -0.6 0.9 -0.5 0.9 1 0 1.1 0 0 -1.1 0 -1 0.9 0.5 0.9 0.6 -0.5 -1.9 -0.5 -1.8 3.2 -0.7 3.2 -0.6 1.1 0.7 1 0.6 -0.7 -1.1 -0.6 -1 1.2 -0.5 1.3 -0.5 -3.2 -0.7 -3.3 -0.7 0.7 -1.1 0.6 -1 -1.2 0.7 -1.2 0.8 -2.5 -0.6 -2.5 -0.7 0.6 -0.8 0.5 -0.9 -1.7 0.4 -1.8 0.4 -8.5 -4.4 -8.5 -4.4 0.3 -1.2 0.2 -1.1 -1 0.6 -1 0.6 -3 -2.1 -3 -2.2 0.6 -1 0.7 -1.1 -1.2 0.7 -1.1 0.7 -7.1 -6.8 -7.1 -6.8 -3.8 -5.6 c -2.1 -3 -4.5 -7.2 -5.4 -9.3 l -1.6 -3.8 0.7 -1.1 0.6 -1 -1 0.6 -1 0.7 -1.8 -6.2 -1.7 -6.1 -0.8 -11.6 c -0.4 -6.4 -0.7 -15.3 -0.6 -19.8 l 0.2 -8.2 0.7 -0.7 0.6 -0.7 -0.8 -1.6 -0.9 -1.6 0.3 -10 c 0.1 -5.5 0.3 -10.2 0.5 -10.5 0.1 -0.3 0.1 -1.7 0 -3.2 l -0.1 -2.6 1.5 -3.1 1.6 -3.1 6.8 -7 c 3.7 -3.9 6.8 -7.6 7 -8.3 l 0.4 -1.2 -0.8 0.7 -0.7 0.8 -1.9 -3 -1.8 -3 0 -6.3 0 -6.2 -2 2.5 -1.9 2.5 -1.3 -1.4 -1.3 -1.4 1.5 0.7 1.5 0.7 -1.6 -1.3 -1.6 -1.3 0.5 -1.4 0.5 -1.4 -1.1 0.7 -1 0.6 -2.4 -5.7 -2.3 -5.8 -0.2 -59.7 -0.3 -59.8 1.9 0 1.9 0 0.9 -1.2 c 0.5 -0.7 1.7 -3.8 2.7 -6.8 1 -3 2.2 -5.8 2.5 -6.2 l 0.6 -0.7 -0.3 49.7 -0.3 49.7 4.9 -4.8 4.8 -4.7 0.9 0.7 0.8 0.8 -0.7 -1.2 -0.6 -1.2 1.3 -0.8 c 0.7 -0.4 2.7 -2.7 4.6 -5.1 l 3.3 -4.2 1.1 0.6 1.2 0.7 -1.2 -1.4 -1.3 -1.3 0 -24.1 0 -24.1 3.3 -3.2 3.3 -3.2 0.8 0.7 0.8 0.8 -0.4 -1.5 -0.3 -1.5 1.3 0.3 1.3 0.2 -0.5 -0.8 -0.5 -0.9 2.3 -2.2 2.2 -2.1 0.9 0.7 0.8 0.8 -0.6 -1.1 -0.6 -1.1 3.9 -3.8 3.8 -3.7 1.1 0.6 1.1 0.7 0 -1.1 c 0 -1.6 4.1 -6.4 8.6 -10.1 1 -0.9 2.5 -2.5 3.3 -3.7 l 1.5 -2.1 0.7 0.4 0.7 0.5 0.7 -2.3 c 0.4 -1.2 0.6 -2.6 0.5 -3.2 -0.2 -0.5 -0.4 -3 -0.5 -5.5 l -0.2 -4.5 0.8 -2.1 0.8 -2.2 -1.4 -2 -1.5 -2 -2.5 -0.6 -2.6 -0.7 0.5 -0.8 0.6 -0.9 -1.8 0.2 -1.7 0.1 0.3 -1.3 0.2 -1.3 -0.9 0.5 -0.9 0.6 -2.1 -2.5 -2 -2.6 -0.7 -3.2 -0.7 -3.1 1.2 -0.4 c 0.6 -0.2 1.1 -0.8 1.1 -1.3 l 0 -1 -0.9 0.5 -0.9 0.6 -0.6 -1.6 c -0.9 -2.2 -0.8 -2.4 0.9 -2.4 l 1.5 0 0 -1.7 0 -1.8 -1 1.5 -1 1.5 0.5 -3.4 c 0.3 -1.9 1 -4.2 1.6 -5.3 l 1 -1.9 0.8 0.6 0.9 0.5 -0.2 -1.7 -0.1 -1.7 4.8 -3 4.8 -3 5.7 -0.1 c 3.1 -0.1 6.5 0.1 7.5 0.3 l 1.7 0.4 0 1.7 0 1.6 0.9 -1.4 0.9 -1.4 1.1 0.8 1.2 0.7 -1.3 1.6 -1.3 1.7 1.8 -1.4 1.8 -1.4 2.2 2.3 2.2 2.3 -1.2 -0.7 -1.3 -0.7 0 1 0 1.1 1.5 0 1.4 0 1 1.9 c 0.6 1 1.5 3.7 2 6 l 0.9 4.2 -1.3 -1.1 -1.3 -1.1 -0.6 1.7 c -0.3 0.8 -0.6 2.2 -0.6 3.1 l 0 1.5 1.5 -0.6 1.5 -0.5 0 1.5 c 0 1.9 -2.7 8.4 -3.5 8.4 l -0.6 0 0.7 -1.2 0.7 -1.1 -1.1 0.7 -1.2 0.7 0 1.7 0 1.7 -3.3 2.1 c -1.7 1.2 -4.1 2.5 -5.2 2.8 l -2 0.6 -1.3 2.1 -1.3 2.1 1 -0.7 1.1 -0.6 0 9.6 0 9.6 -1.1 2.2 c -0.6 1.2 -3.2 4.3 -5.7 6.9 l -4.5 4.7 -1.1 -0.6 -1.1 -0.6 0.8 0.8 0.7 0.9 -3.6 3.7 -3.7 3.8 -1 -0.6 -1 -0.6 0.6 1 0.6 0.9 -7.8 7.8 -7.7 7.7 -0.7 -0.6 -0.7 -0.5 0.5 0.7 0.5 0.6 -1.7 2 -1.8 1.9 -0.5 17.9 -0.5 17.9 0.8 0 c 0.4 0 2.1 -1.6 3.8 -3.5 l 3.1 -3.5 0.9 0.6 0.9 0.5 -0.2 -0.9 -0.3 -1 6.6 -6.8 c 3.7 -3.8 8.7 -8.8 11.1 -11.1 2.5 -2.2 5.3 -5.2 6.2 -6.4 l 1.6 -2.3 0 -9.5 0 -9.5 12.7 -12.8 12.7 -12.7 0.9 1.2 0.9 1.2 -0.6 -1.8 -0.6 -1.8 1.5 -0.5 1.5 -0.6 0 -14.8 0 -14.9 1 -0.6 1 -0.6 -0.6 1.8 -0.6 1.8 1 -1.5 1.1 -1.4 -0.5 -0.8 -0.5 -0.7 1.3 -2.1 1.3 -2 1.8 0 1.8 0 -0.7 -1.1 -0.6 -1.1 3.1 -3.2 3.1 -3.2 -2 -3.9 -2.1 -4 0.4 -4 0.3 -4 1.1 0.2 1.1 0.2 -0.6 -2.1 -0.5 -2.2 -0.9 2 -0.8 1.9 0.6 -3 0.6 -3 1.1 -0.7 1.2 -0.8 -1 0 -1 -0.1 2.5 -1.5 2.5 -1.5 -1.9 0.6 -1.9 0.5 1.3 -1.5 1.2 -1.5 0.9 0.6 0.9 0.5 -0.2 -1.3 -0.3 -1.3 1.3 0.3 1.3 0.2 -0.6 -1 -0.6 -1 3.4 -1.5 c 1.9 -0.8 5.3 -1.7 7.5 -2.1 l 4 -0.6 3.6 1.2 3.6 1.2 -0.5 0.9 -0.6 0.9 1.4 -0.6 1.4 -0.5 3.1 2.6 3 2.5 -0.7 2.8 -0.8 2.8 1.8 0 1.8 0 -1.1 -1.3 -1.1 -1.3 0.6 -0.6 0.5 -0.6 1.1 2 1.1 2.1 -0.9 2.3 -0.8 2.3 0.7 2 0.8 2 0.4 -3 0.5 -3 0.2 5.2 0.1 5.2 -1 0.6 c -0.5 0.3 -1.5 1.6 -2 2.8 l -1.1 2.2 1.5 -1.9 1.6 -2 0 1 c 0 1.4 -1.8 3.9 -3 4 -0.5 0.1 -1.2 0.3 -1.5 0.4 -0.6 0.3 -2.1 0.7 -3.7 0.9 l -1.3 0.2 2 0.8 2 0.9 1.5 -1.2 1.5 -1.1 -2 2.4 c -1.1 1.3 -3.7 3.2 -5.8 4.3 l -3.9 1.9 -1.4 -0.5 -1.4 -0.5 0 0.9 0 1 -2.5 0 -2.6 0 -0.5 -1.5 -0.6 -1.5 -1.5 0 -1.4 0 0.7 1.1 0.7 1.2 -2.4 -0.6 -2.4 -0.6 -2.7 2.4 c -1.6 1.3 -2.8 2.7 -2.8 3.1 0 0.3 -1.1 1.9 -2.5 3.6 l -2.5 3 0 14.7 0 14.7 -13.2 13.2 -13.2 13.2 -0.9 -1.3 -0.9 -1.2 0.5 1.6 0.5 1.7 -1 1 -1.1 1.1 0.1 9.8 0.2 9.7 -2.7 2.8 -2.6 2.7 -0.9 -0.5 -0.8 -0.5 0.2 0.9 0.3 1 -5.3 5.6 c -2.9 3.1 -5.6 5.5 -6 5.3 -0.4 -0.1 -0.8 0.3 -1 0.8 -0.2 0.6 -1.7 2.4 -3.4 4.2 l -3.1 3.2 -1 -0.6 -1 -0.6 0.6 1 0.6 1 -3.8 3.7 -3.7 3.6 -0.8 -0.7 -0.8 -0.8 0.4 1.2 0.3 1.2 -3.3 3.5 -3.4 3.6 -1 -0.6 -1.1 -0.7 0.7 1.1 0.6 1.1 -2.6 2.6 -2.7 2.7 -1.6 0.3 -1.6 0.2 0 1.2 0 1.2 -5.9 5.9 -5.9 5.9 -1 -0.6 -1 -0.6 0.6 1 0.6 1 -4.4 4.6 -4.5 4.5 0 7.9 0 8 2 5.9 2 5.8 -0.5 1.4 -0.5 1.4 1.4 -0.5 1.4 -0.6 1 2.9 1 2.8 -0.6 0.8 -0.7 0.7 1 -0.6 1.1 -0.6 2.8 4.5 c 2.8 4.5 4 5.2 5.1 3.4 l 0.6 -1 1.1 0.6 1.1 0.7 -0.6 -1 -0.7 -1 1.9 -1.7 1.8 -1.6 0.7 0.7 0.8 0.8 -0.4 -1.5 -0.3 -1.5 1.3 0.3 1.3 0.2 -0.5 -0.8 -0.5 -0.9 4.8 -4.7 4.7 -4.6 0.7 0.5 0.7 0.5 -0.5 -0.7 -0.5 -0.7 4.6 -4.7 4.7 -4.8 1 0.6 1 0.6 -0.6 -1 -0.7 -1.1 1.4 -1.1 1.3 -1.1 0.8 0.8 0.8 0.7 -0.6 -1.1 -0.6 -1.1 3.3 -3.2 3.2 -3.1 0.9 0.7 0.8 0.8 -0.6 -1.1 -0.6 -1.1 5.8 -5.7 5.7 -5.7 0.9 0.8 0.8 0.8 -0.6 -1.1 -0.6 -1.1 3.8 -3.7 3.7 -3.6 0.9 0.7 0.8 0.8 -0.6 -1.1 -0.6 -1.1 3.2 -3.1 c 1.8 -1.7 3.5 -3.1 4 -3.2 0.4 0 0.7 -0.3 0.7 -0.7 0 -0.5 3.5 -4.3 7.7 -8.5 l 7.7 -7.7 0.8 0.5 0.8 0.5 -0.2 -1.3 -0.3 -1.3 1.3 0.3 1.3 0.2 -0.5 -0.8 -0.5 -0.9 2.2 -2.1 c 1.2 -1.1 2.6 -2.1 3 -2.1 0.5 0.1 1.2 -0.3 1.5 -0.7 l 0.7 -0.7 -1.5 0.7 c -0.8 0.4 0.3 -0.9 2.5 -3 l 4 -3.8 0.1 -2.6 c 0.2 -1.4 0.3 -6.5 0.4 -11.5 l 0.1 -9 1.7 4.3 1.7 4.4 3.2 -0.5 3.3 -0.6 -0.3 8.9 -0.2 8.8 -2 2.3 -2 2.4 2 -1.5 2 -1.4 -2.9 3.2 -2.9 3.1 -1 -0.6 -1 -0.6 0.6 1 0.6 1 -3.3 3.2 -3.2 3.1 -0.8 -0.7 -0.8 -0.8 0.4 1.2 0.3 1.2 -9.5 9.6 c -5.2 5.2 -9.8 9.5 -10.2 9.5 -0.4 0 -0.8 0.3 -0.8 0.8 l 0 0.7 9 -0.4 9 -0.3 5.7 -5.9 5.6 -5.9 1.1 0.7 1.1 0.6 -0.7 -0.8 -0.8 -0.8 1.1 -1.3 1.1 -1.4 1.1 0.7 1 0.6 -0.6 -1 -0.6 -1 2.3 -2.2 2.2 -2.1 0.9 0.7 0.8 0.8 -0.6 -1.1 -0.7 -1.1 1.9 -1.7 1.8 -1.6 0.6 0.5 0.7 0.5 -0.5 -0.7 -0.6 -0.7 5.7 -5.7 5.7 -5.8 1 0.6 1 0.6 -0.6 -1 -0.7 -1 1.9 -1.7 1.8 -1.6 0.7 0.7 0.8 0.8 -0.4 -1.5 -0.3 -1.5 2 0.2 2 0.2 -1.3 -0.5 -1.4 -0.6 2.8 -2.9 2.7 -2.8 1.1 0.6 1.1 0.6 -0.8 -0.8 -0.7 -0.9 2.6 -2.7 2.7 -2.8 1.1 0.6 1.1 0.6 -0.8 -0.8 -0.7 -0.9 4.5 -4.6 4.5 -4.5 -0.9 -5.3 -0.8 -5.3 0.8 -4.6 c 0.9 -4.7 1.5 -5.8 5.7 -10.5 l 2.4 -2.6 1.6 0.5 1.5 0.6 -0.6 -1 -0.6 -1 2.5 -1.2 c 1.4 -0.6 3.4 -1.1 4.5 -1.1 l 2 0 -0.7 1.3 -0.8 1.2 1.5 -1.2 1.5 -1.3 1.4 1.3 1.3 1.2 -0.8 -1.4 -0.8 -1.4 3.4 0.7 3.3 0.6 0.9 1.5 0.8 1.5 1 -0.6 1 -0.6 1.4 1.2 1.5 1.2 -0.5 0.8 -0.5 0.9 1.1 0.7 1.2 0.7 -0.7 -1.4 c -0.4 -0.8 0.4 -0.1 1.7 1.5 l 2.5 2.9 1.2 4.3 1.2 4.3 -0.6 3.3 c -0.5 2.9 -1.1 5.9 -1.5 8 0 0.4 -1.6 2.4 -3.3 4.4 l -3.3 3.7 -4 1.8 -4 1.9 -4.7 0 -4.7 0 -2.6 -1 -2.6 -1 0.6 -1 0.6 -1 -2.1 0.3 -2.1 0.3 -15.5 15.5 c -8.5 8.5 -15.8 15.3 -16.2 15.2 -0.4 -0.2 -0.7 0 -0.7 0.5 0 0.4 -0.4 1.3 -0.8 2 l -0.8 1.2 -1.1 -0.6 -1.1 -0.7 0.6 1 0.6 0.9 -8.8 8.7 -8.7 8.7 -1.3 0 -1.2 0 0.6 1 0.6 1 -1.3 0 -1.3 0 1.4 0.9 1.4 0.9 1.4 -0.5 1.3 -0.5 1.7 1.3 1.7 1.4 -0.8 -1.2 -0.7 -1.3 12.5 0 12.5 0 -0.6 1.8 -0.6 1.7 5.2 -5.5 5.2 -5.5 1 0.3 1 0.2 -0.5 -0.8 -0.6 -0.9 2 -1.8 1.9 -1.7 1 0.6 1 0.6 0.7 -1.1 0.7 -1.2 -1.1 0.7 -1.2 0.7 0 -0.7 c 0 -0.4 1.2 -1.7 2.7 -3 l 2.7 -2.3 0.9 0.6 1 0.6 -0.6 -1 -0.6 -0.9 2.3 -2.7 2.3 -2.7 0.7 0.7 0.6 0.6 0 -1.6 0 -1.6 1.8 -0.5 c 0.9 -0.3 6.3 -0.5 12 -0.5 l 10.2 0 0 1.1 0 1 1.3 -1 1.3 -1.1 0.1 2 0.2 1.9 -1.5 0 -1.5 0 0.5 0.8 0.5 0.9 -3.3 3.2 -3.2 3.1 -0.7 -0.5 -0.7 -0.5 0.5 0.7 0.5 0.7 -2.7 2.8 -2.7 2.8 -4.3 0 -4.3 0 0 -1 0 -1 -1.1 0 -1 0 0.5 0.9 0.6 0.9 -2.8 0.5 -2.7 0.6 -4 3.9 -4 4 -0.9 -0.6 -0.9 -0.5 0.6 1 0.7 1 -1.9 1.7 -1.8 1.6 -0.7 -0.7 -0.7 -0.7 0.6 1.4 0.5 1.5 -3.4 2.7 -3.4 2.8 -40.7 0 -40.6 0.1 0.5 0.8 0.5 0.7 -11.8 11.8 -11.7 11.7 -0.9 -0.8 -0.8 -0.8 0.6 1.1 0.7 1.1 -1.9 1.7 -1.8 1.6 -0.8 -0.7 -0.8 -0.8 0.6 1.1 0.7 1.1 -1.9 1.7 -1.8 1.6 -0.8 -0.7 -0.8 -0.8 0.6 1.1 0.7 1.2 -1.4 1.1 -1.3 1.1 -0.8 -0.8 -0.8 -0.7 0.6 1.1 0.6 1.1 -2.3 2.2 -2.2 2.1 -0.9 -0.7 -0.8 -0.8 0.6 1.1 0.7 1.1 -1.9 1.7 -1.8 1.6 -0.8 -0.7 -0.8 -0.8 0.6 1.1 0.7 1.1 -1.9 1.7 -1.8 1.6 -0.7 -0.7 -0.8 -0.8 0.4 1.5 0.3 1.5 -1.5 -0.3 -1.5 -0.4 0.8 0.8 0.7 0.8 -2.2 2.3 -2.2 2.4 0.4 28.2 c 0.2 15.5 0.4 31 0.4 34.5 l 0.1 6.2 0.6 0 c 0.4 0 1 1.7 1.3 3.8 0.4 2 0.9 4.6 1.2 5.7 l 0.5 2 -1.1 -1.5 -1.1 -1.5 0.3 1.8 0.3 1.8 0.9 -0.1 c 0.5 -0.1 1.3 0.5 1.8 1.4 l 0.9 1.6 -0.7 1.3 -0.7 1.2 0.8 -0.7 0.8 -0.7 3.3 5.5 3.4 5.6 -0.6 0.9 -0.5 0.9 0.9 -0.2 0.9 -0.3 8.8 8.3 8.8 8.2 1.1 -0.2 c 0.6 -0.1 4.6 1.2 8.8 3 4.2 1.8 8.4 3.2 9.3 3.2 l 1.6 0 -0.6 0.9 -0.5 1 1.1 0.7 1.2 0.7 -0.8 -1.3 -0.8 -1.3 2.9 0.7 c 1.6 0.4 9.9 0.9 18.4 1.3 l 15.5 0.5 1.3 1.1 1.3 1 -0.3 -1.3 -0.3 -1.3 3.5 -0.8 c 1.9 -0.5 4.1 -0.6 4.8 -0.4 l 1.2 0.4 0 -0.7 c 0 -0.4 1.4 -1.3 3.1 -1.9 l 3 -1.2 -0.8 1.3 c -0.4 0.6 0 0.4 0.9 -0.7 l 1.7 -1.9 1.2 0.8 1.2 0.7 -0.7 -1.1 -0.7 -1.1 2.3 -1.3 2.3 -1.2 1.4 0.3 1.3 0.2 -0.6 -0.9 -0.6 -1 3.5 -2.6 3.5 -2.7 1.2 0.7 1.1 0.7 -0.7 -1.1 -0.6 -1.1 2.1 -1.5 2.2 -1.5 1 0.6 1 0.6 -0.7 -1.1 -0.6 -1.1 2.1 -1.5 2.2 -1.5 0.9 0.5 0.8 0.5 -0.2 -1.3 -0.3 -1.3 1.3 0.3 1.3 0.2 -0.5 -0.9 -0.6 -0.9 3.9 -3.1 3.8 -3 0.8 0.7 0.8 0.7 -0.6 -1.1 -0.6 -1.1 3.7 -3.6 c 2 -2 4.2 -3.6 4.7 -3.7 l 1 0 0 -1.1 c 0 -0.6 0.7 -1.6 1.6 -2.2 0.9 -0.7 2.1 -2.2 2.8 -3.5 l 1.2 -2.3 1.1 0.7 1.1 0.7 -0.6 -1 -0.7 -1 1.9 -1.7 1.8 -1.6 0.5 0.5 0.5 0.5 1.4 -1.7 1.4 -1.7 -1.4 0.8 -1.4 0.9 0.5 -1.4 0.6 -1.4 1.3 0.3 1.4 0.4 -0.7 -0.7 -0.7 -0.7 5.1 -6.7 5 -6.6 1 0.3 0.9 0.2 -0.6 -1 -0.6 -1 2.3 -2.4 c 1.3 -1.3 2.4 -3 2.6 -3.7 0.2 -0.8 0.9 -2.1 1.6 -2.9 0.7 -0.8 3.2 -4.8 5.6 -8.7 l 4.2 -7.3 1.1 0.7 1 0.6 -0.7 -1.1 -0.6 -1.1 1.1 -2.5 1.2 -2.5 1 0.6 1 0.6 -0.7 -1.1 -0.6 -1 3.8 -8.1 3.8 -8.1 0.9 0.7 0.8 0.8 -0.7 -1.2 -0.6 -1.2 4.2 -12.3 c 2.3 -6.8 4.5 -12.5 5 -12.6 l 0.8 -0.4 -0.5 -0.8 -0.5 -0.8 2.4 -10.1 c 1.4 -5.6 3.1 -14.4 3.8 -19.7 l 1.2 -9.5 0.7 1.8 0.7 1.8 -0.5 -5.6 -0.6 -5.7 0.7 -7.5 0.8 -7.5 1.7 -0.5 1.7 -0.4 1.7 -4.4 c 0.9 -2.4 2.1 -5.7 2.7 -7.3 l 1 -2.8 1.5 1.2 1.5 1.2 -0.1 4.7 0 4.6 -0.9 -2 -0.9 -2 0 1.7 -0.1 1.7 1.1 0.7 1.1 0.7 -1.3 0.8 -1.4 0.9 1.4 0 1.3 0 -1.3 1.7 -1.4 1.7 1.3 -0.8 1.2 -0.7 0 1.6 0 1.6 -0.9 -0.5 -0.9 -0.6 -0.5 2 -0.5 2 0.8 0 c 0.5 0 1.1 -0.6 1.4 -1.2 l 0.6 -1.3 -0.6 10 c -0.6 11 -1.8 21.3 -3.5 31.1 l -1.1 6.4 -1.1 -0.7 -1 -0.6 0.7 1.2 0.8 1.2 -0.7 3.5 -0.6 3.6 -1.5 -0.6 -1.4 -0.5 0 1.5 0 1.5 1 -0.6 1 -0.6 0 0.9 c 0 0.5 -0.7 1.5 -1.5 2.2 -0.8 0.7 -1.5 1.7 -1.5 2.2 l 0 0.9 0.9 -0.6 1 -0.5 -2 6.7 c -1 3.7 -1.9 6.9 -1.9 7 0 0.2 -0.7 0.3 -1.5 0.3 l -1.5 0 0 1.1 0 1 1 -0.6 c 1.3 -0.8 1.2 -0.5 -0.1 3.4 l -1.1 3.1 -0.9 0 -0.8 0 0.6 1.7 0.6 1.6 -1 -0.6 -1 -0.7 0 2.5 0 2.5 -6.2 12.5 -6.2 12.5 -0.9 -0.5 -0.9 -0.5 0.2 1.7 0.1 1.8 -4.3 7.2 -4.3 7.3 -0.9 -0.6 -0.9 -0.5 0.6 1.4 0.5 1.4 -3 3.1 c -1.6 1.8 -2.7 3.2 -2.4 3.2 0.2 0 -3 4.5 -7.2 10 -4.3 5.5 -7.9 10 -8.2 10 -0.2 0 -0.1 -0.5 0.3 -1.2 l 0.7 -1.1 -1.2 0.7 -1.1 0.7 0.5 0.9 0.5 0.8 -1.5 1.2 -1.5 1.2 -0.1 -0.8 c -0.1 -0.5 -0.4 0.2 -0.8 1.6 l -0.8 2.5 -1.1 -0.3 -1.2 -0.2 0.1 0.7 c 0.1 0.5 0.1 1.3 0 1.8 l -0.1 1 -1.1 -1.5 -1.1 -1.5 0.5 1.6 0.5 1.6 -7.7 7.7 -7.8 7.7 -1.9 0.3 -1.9 0.3 0.5 0.6 0.5 0.5 -2.4 2.6 -2.4 2.5 -0.9 -0.5 -0.8 -0.5 0.2 1.3 0.3 1.3 -1.7 -0.1 -1.8 -0.2 0.5 0.8 0.5 0.8 -4.4 3.7 -4.5 3.7 -1.2 -0.8 -1.2 -0.7 0.7 1.1 0.6 1 -3.2 2.3 -3.2 2.3 0.8 -1.2 0.7 -1.2 -1 0 -1.1 0 0 1.4 0 1.5 -3 2.1 -3 2.1 -1.1 -0.7 -1.2 -0.7 0.6 1 0.7 1.1 -4 2.6 c -2.1 1.4 -4.5 2.7 -5.1 2.8 -0.7 0.2 -2.1 1.1 -3.1 2.1 l -2 1.9 -1.4 -0.6 -1.5 -0.6 0.6 0.9 0.5 0.9 -5.2 3 c -2.9 1.7 -6 3.2 -6.8 3.4 -0.8 0.2 -1.7 0.6 -2 0.9 -0.3 0.4 -2.4 1.6 -4.8 2.8 l -4.3 2.2 -1.1 -0.7 -1.1 -0.7 0.7 1.1 0.6 1.1 -2.2 0.7 c -1.3 0.4 -4 0.7 -6.1 0.7 l -3.7 -0.1 -0.6 0.9 -0.5 0.9 -1.1 -0.6 -1.1 -0.7 0.7 1.2 0.8 1.2 1.4 -1.2 1.4 -1.1 0 1.6 0 1.6 -1.7 0.1 c -1 0.1 -2.7 0.1 -3.8 0 l -2 -0.2 1.3 0.9 1.4 0.9 -3.3 1.2 c -3.9 1.3 -4.9 1.4 -2.9 0.1 l 1.5 -1 -1.7 0 -1.8 0 0 1.6 0 1.6 -2 -0.5 -2 -0.5 0.5 0.8 0.6 0.9 -6.7 2.1 c -7.6 2.3 -7.7 2.3 -6.9 1 l 0.6 -1 -1.5 0.6 -1.6 0.6 0.7 1 0.6 1.1 -2.6 -0.5 -2.6 -0.5 0.4 0.7 0.4 0.6 -5.2 1.3 c -2.9 0.7 -6.1 1.5 -7.2 1.8 l -2 0.4 1.5 -1 1.5 -1.1 -5 0.6 c -2.7 0.4 -5.2 0.8 -5.4 1 -0.2 0.2 -1 -0.1 -1.8 -0.8 l -1.3 -1.1 0.6 1.7 0.7 1.7 4.1 -0.5 4.1 -0.5 -3.4 1 -3.5 1.1 -2.3 -0.5 -2.2 -0.4 0.5 0.8 0.5 0.9 -3.3 -0.1 -3.3 -0.1 2.2 -0.6 2.2 -0.7 -1.6 -2 -1.6 -2 0.7 1.9 0.7 2 -2.3 -2 -2.3 -1.9 1.4 1.8 1.3 1.7 -0.8 0.1 c -0.5 0.1 -1.3 0.1 -1.8 0 l -0.8 -0.2 0.5 1.4 0.5 1.5 -3.6 0.5 c -2 0.4 -7.2 0.9 -11.5 1.3 l -7.7 0.7 0.6 -1.9 0.6 -1.9 -0.9 1.1 c -0.4 0.6 -1.8 1.6 -3 2.3 l -2.2 1.1 -14.5 0 -14.6 0 0 -0.7 z  m 117.6 -30.2 l -0.5 -0.8 4.2 -1.4 c 2.3 -0.8 4.8 -1.3 5.5 -1.1 l 1.2 0.3 0 -1 0 -1 1.7 0.6 1.6 0.6 -0.7 -1.1 -0.7 -1.2 1.3 -0.1 c 0.7 -0.1 1.9 -0.1 2.7 0 l 1.3 0.2 -0.6 -0.9 -0.6 -1 7.4 -3.3 7.4 -3.3 -0.2 -1.3 c -0.1 -0.7 -0.6 -1.6 -1.1 -2 l -0.8 -0.8 0.6 1.1 0.7 1.2 -1.6 0.6 c -0.9 0.3 -2.7 0.6 -4 0.6 l -2.5 0 0.6 -1 0.6 -1 -0.6 0 c -0.4 0 -1.3 0.7 -2.1 1.5 l -1.5 1.5 -2.1 0 -2 0 1.3 -1.7 1.4 -1.7 -1.2 0.7 -1.2 0.7 -0.6 -1 -0.6 -1 -1 0.6 -0.9 0.5 0.5 1 0.6 0.9 -2.9 0 -3 0 -0.5 -1.4 -0.5 -1.3 -2.1 -0.6 -2.1 -0.5 0 0.8 c 0 0.5 0.8 1.1 1.8 1.4 l 1.7 0.5 -4.5 -0.5 c -2.5 -0.2 -8.2 -1.6 -12.7 -3.1 l -8.1 -2.5 0.5 -1.7 0.5 -1.6 -0.9 1.3 -1 1.3 -2.6 -1.2 -2.6 -1.2 0.6 -1 0.6 -1 -1.1 0.7 -1.1 0.7 -2.6 -1.7 -2.5 -1.6 0.5 -0.8 0.5 -0.9 -1.1 -0.7 -1.2 -0.7 0.7 1.1 0.7 1.2 -1.1 0 c -0.5 0 -2.5 -1.5 -4.3 -3.2 l -3.3 -3.3 2.5 2 2.6 2 -1.9 -2.2 -1.8 -2.2 0.7 -1 0.6 -1.1 -2.5 1 -2.6 1 -0.1 -1 c -0.1 -0.6 -0.2 -1.4 -0.3 -1.9 0 -0.6 -0.8 -1.6 -1.6 -2.3 l -1.4 -1.3 1.3 1.8 1.3 1.7 -1 0 -1.1 0 -1.3 -2.2 c -0.7 -1.3 -1.1 -2.7 -1 -3.1 l 0.2 -0.8 -0.9 0.5 -0.9 0.6 -3.6 -5.7 -3.6 -5.8 0.5 -1.3 0.5 -1.3 -0.9 0.5 -0.8 0.6 -1.7 -4.3 c -0.9 -2.4 -2.3 -7.5 -3.2 -11.3 l -1.5 -6.9 -0.6 -29.8 -0.6 -29.7 -3.4 3.7 -3.4 3.8 -1 -0.3 -1 -0.2 0.5 0.9 0.6 1 -1.7 1 -1.8 1 -0.5 24.6 -0.5 24.6 0.8 2.2 0.8 2.2 -1 0.3 -1.1 0.4 0.1 4.1 0.1 4.2 0.8 -2.5 0.8 -2.5 0.1 3.2 0.1 3.1 -1.2 0.5 -1.3 0.5 1.6 0.1 1.7 0.1 0.6 4.3 0.7 4.3 2.9 6.3 3 6.3 -0.7 1 -0.6 1.1 1 -0.6 1 -0.6 2.2 2.9 2.2 3 -1.3 0.1 -1.3 0 2.3 1 2.3 0.9 -0.7 1.1 -0.7 1.2 1 -0.6 1 -0.6 4.4 4.5 c 2.4 2.4 6.1 5.6 8.1 7 l 3.8 2.6 -0.5 0.9 -0.5 0.8 1.1 0.7 1.2 0.7 -0.7 -1.1 c -1 -1.7 -0.4 -1.5 4.8 1.4 l 4.6 2.6 -0.7 1.1 -0.6 1 1.6 -0.6 1.7 -0.6 2.5 1.1 2.4 1.1 -0.4 0.8 -0.5 0.8 1.1 0.7 1.2 0.7 -0.7 -1.1 c -0.9 -1.5 -0.7 -1.5 3.3 -0.1 l 3.1 1.1 0 1.6 0 1.7 0.9 -1.4 0.9 -1.3 2.1 0.7 2.1 0.6 -0.5 0.9 -0.5 0.8 4.2 0 4.3 0.1 0.3 0.9 0.3 0.9 2.5 -0.5 2.5 -0.4 -0.2 0.8 c -0.2 1.4 0 2.4 0.7 2.4 l 0.5 0 -0.5 -0.9 z  M311.5 649.7 C 311.5 642.9 306 637.4 299.3 637.4 292.5 637.4 287 642.9 287 649.7 287 656.4 292.5 661.9 299.3 661.9 306 661.9 311.5 656.4 311.5 649.7 Z M303.1 661.3  m 426.5 -0.4 c 1.6 -0.7 3.2 -1.2 3.7 -1.1 0.4 0.1 0.6 -0.1 0.5 -0.5 -0.1 -0.5 0.6 -2 1.6 -3.5 l 1.8 -2.8 0 -3.4 0 -3.5 -1.8 -2.9 -1.7 -3 -3.7 -2 -3.7 -2 -4.4 2.2 -4.4 2.2 -1.6 3.2 -1.6 3.1 -0.7 -0.7 -0.8 -0.7 0.7 2.7 c 0.4 1.5 0.8 3.9 0.9 5.2 l 0.1 2.4 0.6 -0.4 0.7 -0.4 0.8 1.8 c 0.4 0.9 0.8 2.1 0.8 2.6 l 0.1 0.9 2.9 0.3 c 1.6 0.2 3.4 0.8 3.9 1.3 0.6 0.6 1.3 0.8 1.7 0.6 0.4 -0.2 2 -1 3.6 -1.6 z  m -302 -77.4 l 3.4 -1.4 1.8 -3.1 1.7 -3 1.3 0 1.2 0 0 -1.1 0 -1 -1 0.6 -1 0.6 0 -2.6 0 -2.7 -1.6 -3.3 -1.5 -3.3 -3.1 -1.3 -3.1 -1.2 -3.7 -0.1 -3.8 -0.1 0.5 0.8 0.4 0.7 -0.8 0 c -0.5 0 -1.5 -0.6 -2.3 -1.2 l -1.4 -1.3 1.2 1.7 1.3 1.6 -1.1 0.7 -1 0.6 -1.2 -0.7 -1.1 -0.7 0.6 1.6 0.6 1.7 -0.7 -0.1 c -0.4 -0.1 -1.3 -0.1 -1.9 0 l -1.3 0.1 0 1.1 0 1.1 1.4 -0.5 1.4 -0.6 -0.6 2.1 -0.5 2 -1.2 0.4 -1.3 0.5 0.5 2 0.5 1.9 0.9 -0.6 0.9 -0.5 0 1.3 c 0 0.8 1.1 2.9 2.5 4.8 1.4 1.9 2.5 3.1 2.5 2.7 l 0 -0.6 2.3 0.9 c 3.1 1.3 4.3 1.2 8.3 -0.5 z  m 178.1 0.2 l 1.2 0 -0.5 -0.9 -0.5 -0.8 1.3 -0.1 c 0.7 -0.1 1.7 -0.1 2.1 0 l 0.8 0.1 -0.5 -0.8 -0.5 -0.9 1.8 -4.7 c 0.9 -2.5 1.9 -4.5 2.2 -4.4 0.2 0.2 -0.1 -0.2 -0.8 -0.8 -0.7 -0.6 -1.3 -1.4 -1.3 -1.8 l 0 -0.7 1 0.6 1 0.6 0 -1 0 -1.1 -1.6 0 -1.6 0 0.6 -1.5 0.5 -1.5 -0.7 0.2 c -0.4 0.2 -1.9 -0.5 -3.3 -1.5 l -2.6 -1.7 -5.2 -0.4 c -2.9 -0.2 -5 -0.2 -4.8 0 0.2 0.3 -1.1 2 -2.9 4 l -3.4 3.5 0 3.5 0 3.5 -1 -0.6 -1 -0.6 0 1 c 0 0.6 0.4 1.1 0.9 1.1 0.6 0 1.8 1.3 2.7 2.9 l 1.7 2.9 3.1 1.6 3.1 1.5 3.5 -0.6 c 1.9 -0.3 4 -0.6 4.7 -0.6 z  m -233.1 -15.9 c -0.1 -0.7 -0.5 -1.8 -0.9 -2.4 l -0.7 -1.2 1.8 -0.8 c 0.9 -0.4 1.9 -0.7 2.2 -0.6 0.3 0 0.7 -0.7 0.8 -1.6 0.1 -0.9 0.4 -3.4 0.8 -5.5 l 0.6 -3.7 -1.2 -2.9 -1.2 -2.9 -2.6 -2.4 -2.7 -2.3 -4 0.5 c -2.2 0.4 -5 1.1 -6.1 1.8 l -2.1 1.1 -0.8 -0.7 -0.7 -0.7 0.3 1 c 0.2 0.6 0 2 -0.4 3.1 l -0.8 2.2 -1.8 0.5 -1.8 0.4 0.5 3.4 0.6 3.4 0.7 -3 0.7 -3 0.1 3 0.1 3 2 3.3 2 3.3 1.5 0.5 1.5 0.6 0 1.5 0 1.6 5 -0.5 5.1 -0.5 0.5 0.8 c 0.8 1.3 1.3 1.1 1 -0.3 z  m 286.4 -0.8 l -1.5 -1 1.8 0 1.7 0 0 0.8 0 0.8 2.5 0.2 2.5 0.2 0 -1 c 0 -0.5 -0.5 -1.2 -1.1 -1.5 l -1 -0.7 1.7 -1.9 1.7 -1.9 0.7 0.5 0.8 0.5 -0.1 -1.3 c 0 -0.6 0.1 -2.1 0.2 -3.2 l 0.1 -2 1.1 1.5 1 1.5 -0.5 -2 c -0.3 -1.1 -0.8 -3.3 -1.1 -5 l -0.5 -3 0.9 2 1 2 0 -2.1 0.1 -2.2 -1.7 -1.3 -1.7 -1.4 0.9 1.5 0.8 1.5 -2.6 -2.4 -2.6 -2.4 0.4 -0.7 0.5 -0.8 -1.5 -1.2 -1.5 -1.2 0 1 c 0 0.6 0.3 1.2 0.8 1.5 0.4 0.2 0.1 0.2 -0.6 0 -0.8 -0.1 -2.5 -0.3 -3.8 -0.3 l -2.5 0 0.5 -0.8 0.5 -0.9 -1.5 0 -1.5 0 0.5 1.3 0.5 1.2 -2.3 0.6 -2.3 0.6 -1.8 3.4 -1.9 3.5 -0.7 -0.4 -0.6 -0.4 0.4 2.7 0.5 2.7 -1.1 -1.5 -1.1 -1.5 0 1.1 c 0 0.6 0.7 1.7 1.5 2.4 0.8 0.7 1.5 1.8 1.5 2.4 0 1.2 4.9 7 6.3 7.4 0.4 0.1 1.5 0.2 2.5 0.2 l 1.7 0 -1.5 1 -1.5 1 3 0 3 0 -1.5 -1 z  m -146.1 -72.6 l -1 -1.3 4 -1.2 4.1 -1.2 0 -1.4 0 -1.3 1.3 0 1.4 0 0.1 -1.2 c 0.1 -0.7 0.5 -3.3 0.8 -5.6 l 0.6 -4.4 -2.1 -2.9 c -1.1 -1.5 -2.1 -3.3 -2.1 -3.9 0 -0.5 -0.3 -1 -0.7 -0.9 -1.5 0.2 -5.3 -1.3 -5.3 -2.2 l 0 -0.8 -2.1 0.4 c -3.3 0.6 -8 3.7 -10.2 6.7 l -2 2.6 0 4.1 0 4 1.7 2.6 1.7 2.6 -0.7 1.1 -0.7 1.1 1.4 -0.5 1.4 -0.5 3 1.3 3 1.3 -1.7 0.1 c -0.9 0 -2 0.4 -2.3 1 l -0.6 1 1.7 -0.7 1.7 -0.6 -0.5 0.9 -0.6 0.9 2.8 0 2.9 0.1 -1 -1.2 z "/>
  <path d="M 907.4 728.6 l -2.2 -5.5 1.5 -0.5 1.5 -0.6 1.5 4 c 0.9 2.2 1.9 4 2.2 4 0.3 0 1.6 -2.7 2.8 -6 l 2.2 -6 -1.5 0 c -0.8 0 -1.4 -0.3 -1.4 -0.8 0 -0.6 6.2 -8.7 8.6 -11.1 0.2 -0.2 0.4 3.1 0.4 7.4 l 0 7.7 -1.6 -1.2 -1.5 -1.3 -0.5 1.9 c -0.3 1 -1.6 4.4 -2.8 7.4 l -2.2 5.5 -2.5 0.3 -2.4 0.3 -2.1 -5.5 z "/>
  <path d="M 653.7 662 l -1.5 -4 -1.6 0.6 -1.6 0.6 0 -1.6 0 -1.6 1.1 0 1.1 0 -0.5 -1.9 -0.4 -1.8 5 -4.4 5 -4.4 0.9 0.3 0.9 0.2 -0.6 -1.1 -0.7 -1.1 13.8 -13.3 13.8 -13.4 1 0.6 0.9 0.6 -0.7 -1.1 -0.6 -1 1.6 -1.6 1.5 -1.6 -1 0 -1.1 0 0 -2.8 0 -2.8 3.3 -3.2 c 1.7 -1.7 3.7 -3.1 4.2 -3.2 l 1 0 0 -1.2 0.1 -1.3 1.3 0.3 1.2 0.2 -0.5 -0.8 -0.5 -0.9 5.4 -5.3 5.5 -5.4 0 11 0 11.1 -1.8 1.6 -1.9 1.7 -0.8 -0.7 -0.8 -0.8 0.6 1.1 0.6 1.1 -3.4 3.3 -3.5 3.4 -1.6 0.2 c -0.9 0.1 -1.9 0.6 -2.2 1 l -0.7 0.7 2 -0.7 2 -0.7 -2.5 2.7 c -5.5 6 -7.5 7.9 -8.3 7.6 l -0.7 -0.2 0.2 0.9 0.3 0.8 -10.5 10.2 -10.5 10.3 -0.5 -4.2 -0.5 -4.1 -4 5.1 c -2.2 2.8 -4.1 5.5 -4.3 6 l -0.4 1 1.5 0 1.6 0 -2.2 6 c -1.2 3.3 -2.5 6 -2.8 6 -0.3 0 -1.3 -1.8 -2.2 -4 z "/>
  <path d="M 526.6 632.4 l -0.6 -1.6 0.1 -31.1 0.1 -31.2 1.1 -0.7 1.2 -0.8 -1.2 0 -1.3 0 0 -5 0 -5 1.3 0 1.2 0 -1.1 -0.8 -1.2 -0.7 0.2 -8 0.3 -8 0.7 -1.7 0.8 -1.8 1.4 0 c 0.8 0 1.4 -0.3 1.4 -0.7 0 -0.5 2.3 -3.2 5 -6.1 l 4.9 -5.4 1.2 0.8 1.2 0.7 -0.7 -1.2 -0.8 -1.2 1.2 -1.4 1.2 -1.5 1.9 0 1.8 0 0.7 -1.2 0.7 -1.1 -1.3 0.8 -1.3 0.8 1.6 -2.4 1.7 -2.3 0 -2.6 0 -2.5 1 1.5 1 1.5 0 -1.7 0 -1.8 -1 0 -1 0 0 -2.2 0 -2.1 6.3 -6.6 6.3 -6.6 0.1 4.3 0.1 4.2 -0.9 -0.5 -0.9 -0.6 0 2.5 0 2.6 0.9 0 0.9 0 0 2.5 0 2.5 -0.9 0.6 c -0.5 0.3 -0.9 1.1 -0.9 1.7 l 0 1.2 1 -1.5 1 -1.5 0 1.2 0 1.2 -2.2 1.2 -2.3 1.2 1.3 0.5 1.2 0.4 -0.6 0.9 -0.5 0.9 1 0 1.1 0 0 -1.4 c 0 -0.8 0.5 -1.8 1 -2.1 l 1 -0.6 0 1.5 0 1.5 -2.2 2 -2.1 2 -1 -0.6 -1 -0.6 0.6 1 0.7 1.1 -1.4 1.1 -1.3 1.1 -0.8 -0.8 -0.8 -0.7 0.6 1.8 0.6 1.7 -0.9 0 c -0.6 0 -1.3 -0.1 -1.6 -0.2 -0.4 -0.2 -1.1 0.7 -1.5 2 l -0.9 2.3 -1 -0.6 -1 -0.6 0.2 1.3 0.3 1.3 -1.5 -0.3 -1.5 -0.4 0.8 0.8 0.8 0.8 -5.8 5.8 -5.8 5.9 -0.5 32.5 -0.5 32.6 0.5 0.8 0.5 0.8 1.9 -1.4 2 -1.4 -1 0 -0.9 0 3.8 -3.5 c 2.1 -1.9 4 -3.4 4.4 -3.4 0.3 0.1 1 -0.6 1.4 -1.4 l 0.8 -1.4 0.1 -18.5 0.2 -18.5 4.7 -4.7 4.7 -4.6 0.9 0.7 0.8 0.8 -0.7 -1.2 -0.6 -1.2 1.2 -0.8 c 0.7 -0.4 1.8 -0.8 2.3 -0.8 l 1 0 0 -1.5 0.1 -1.5 1.3 0.3 1.2 0.2 -0.5 -0.8 -0.5 -0.9 2.8 -2.7 2.7 -2.6 0.8 0.7 0.8 0.8 -0.4 -1.5 -0.3 -1.5 1.2 0.2 1.3 0.3 -0.3 -1.3 -0.2 -1.2 1.3 0.3 1.3 0.2 -0.5 -0.8 -0.5 -0.9 5.9 -5.7 c 3.2 -3.1 6.2 -5.6 6.5 -5.6 0.4 0.1 1 -0.2 1.3 -0.6 l 0.7 -0.7 -1.2 0.7 -1.3 0.7 0 -3.5 0 -3.6 1 0 1 0 0 -1.1 0 -1 -1 0.6 -1 0.6 0.3 -2.1 0.3 -2.2 1.4 -0.8 1.4 -0.9 1 0.6 0.9 0.6 -0.7 -1.1 -0.6 -1.1 3.2 -3 3.3 -3.1 0.3 9.1 0.3 9.1 -1.3 1.6 -1.3 1.6 1.3 -0.8 1.2 -0.7 0 2.4 0 2.4 -2.3 2.1 -2.3 2.2 -0.9 -0.7 -0.8 -0.8 0.6 1.1 0.7 1.2 -1.3 1 c -0.6 0.6 -1.5 1.1 -1.9 1.1 -0.5 0.1 -0.8 0.4 -0.9 0.9 0 0.4 -0.7 1.5 -1.6 2.4 l -1.5 1.7 -1.1 -0.3 -1.2 -0.3 0.8 0.5 0.8 0.4 -1.2 1.4 -1.1 1.4 -0.9 -0.6 -0.9 -0.5 0.2 1.2 0.3 1.2 -2.3 1.2 c -1.2 0.7 -2.6 1.6 -3 2 l -0.7 0.8 1.5 -0.8 1.5 -0.8 -1.9 2.1 c -1 1.2 -2.1 2 -2.5 1.9 -0.3 -0.1 -0.7 0.2 -0.8 0.6 0 0.5 -1.3 2.2 -2.9 3.8 l -2.7 2.8 -0.9 -0.5 -0.8 -0.5 0.2 1.3 0.3 1.3 -1.5 -0.3 -1.5 -0.4 0.7 0.8 0.8 0.7 -3 3.3 -2.9 3.3 0.3 17.3 0.4 17.3 -3.1 3.2 -3 3.2 -1.1 -0.6 -1.1 -0.6 0.8 0.8 0.8 0.9 -5.2 5.2 -5.2 5.3 -0.8 -0.5 -0.8 -0.4 -0.7 1.1 -0.7 1.2 1.4 -0.8 1.4 -0.9 -1.5 1.9 -1.5 1.8 -0.3 -6.2 -0.3 -6.2 -4.4 6 c -4.9 6.4 -5.2 7.1 -3.1 7.1 l 1.5 0 -2.2 6 c -2.3 6.2 -3.1 7.1 -4.1 4.4 z "/>
  <path d="M 267.4 408.6 l -2.2 -5.5 1.5 -0.5 1.5 -0.6 1.5 4 c 0.9 2.2 1.9 4 2.2 4 0.3 0 1.6 -2.7 2.8 -6 l 2.2 -6 -1.5 0 c -0.8 0 -1.4 -0.3 -1.4 -0.8 0 -0.6 6.2 -8.7 8.6 -11.1 0.2 -0.2 0.4 3.1 0.4 7.4 l 0 7.7 -1.6 -1.2 -1.5 -1.3 -0.5 1.9 c -0.3 1 -1.6 4.4 -2.8 7.4 l -2.2 5.5 -2.5 0.3 -2.4 0.3 -2.1 -5.5 z "/>
  <path d="M 395.4 280.6 l -2.2 -5.5 1.5 -0.5 1.5 -0.6 1.5 4 c 0.9 2.2 1.9 4 2.2 4 0.3 0 1.6 -2.7 2.8 -6 l 2.2 -6 -1.5 0 c -0.8 0 -1.4 -0.3 -1.4 -0.8 0 -0.6 6.2 -8.7 8.6 -11.1 0.2 -0.2 0.4 3.1 0.4 7.4 l 0 7.7 -1.6 -1.2 -1.5 -1.3 -0.5 1.9 c -0.3 1 -1.6 4.4 -2.8 7.4 l -2.2 5.5 -2.5 0.3 -2.4 0.3 -2.1 -5.5 z "/>
  <path d="M 267.4 248.6 l -2.2 -5.5 1.5 -0.5 1.5 -0.6 1.5 4 c 0.9 2.2 1.9 4 2.2 4 0.3 0 1.6 -2.7 2.8 -6 l 2.2 -6 -1.5 0 c -0.8 0 -1.4 -0.3 -1.4 -0.8 0 -0.6 6.2 -8.7 8.6 -11.1 0.2 -0.2 0.4 3.1 0.4 7.4 l 0 7.7 -1.6 -1.2 -1.5 -1.3 -0.5 1.9 c -0.3 1 -1.6 4.4 -2.8 7.4 l -2.2 5.5 -2.5 0.3 -2.4 0.3 -2.1 -5.5 z "/>
  <path d="M 11.4 184.6 l -2.2 -5.5 1.5 -0.5 1.5 -0.6 1.5 4 c 0.9 2.2 1.9 4 2.2 4 0.3 0 1.6 -2.7 2.8 -6 l 2.2 -6 -1.5 0 c -0.8 0 -1.4 -0.3 -1.4 -0.8 0 -0.6 6.2 -8.7 8.6 -11.1 0.2 -0.2 0.4 3.1 0.4 7.4 l 0 7.7 -1.6 -1.2 -1.5 -1.3 -0.5 1.9 c -0.3 1 -1.6 4.4 -2.8 7.4 l -2.2 5.5 -2.5 0.3 -2.4 0.3 -2.1 -5.5 z "/>
 </g>
</svg>